<svg width="56" height="24" viewBox="0 0 56 24" fill="none" xmlns="http://www.w3.org/2000/svg">
<path fill-rule="evenodd" clip-rule="evenodd" d="M11.2947 19.2947C11.6842 19.6842 12.3158 19.6842 12.7053 19.2947C13.0946 18.9054 13.0949 18.2743 12.7059 17.8847L7.83 13L19 13C19.5523 13 20 12.5523 20 12C20 11.4477 19.5523 11 19 11L7.83 11L12.7059 6.11532C13.0949 5.72568 13.0946 5.0946 12.7053 4.70532C12.3158 4.31578 11.6842 4.31578 11.2947 4.70532L4 12L11.2947 19.2947Z" fill="black" fill-opacity="0.7"/>
<mask id="mask0_1_258197" style="mask-type:alpha" maskUnits="userSpaceOnUse" x="4" y="4" width="16" height="16">
<path fill-rule="evenodd" clip-rule="evenodd" d="M11.2947 19.2947C11.6842 19.6842 12.3158 19.6842 12.7053 19.2947C13.0946 18.9054 13.0949 18.2743 12.7059 17.8847L7.83 13L19 13C19.5523 13 20 12.5523 20 12C20 11.4477 19.5523 11 19 11L7.83 11L12.7059 6.11532C13.0949 5.72568 13.0946 5.0946 12.7053 4.70532C12.3158 4.31578 11.6842 4.31578 11.2947 4.70532L4 12L11.2947 19.2947Z" fill="white"/>
</mask>
<g mask="url(#mask0_1_258197)">
<rect x="24" y="24" width="24" height="24" transform="rotate(180 24 24)" fill="#C2D1D9"/>
</g>
<path fill-rule="evenodd" clip-rule="evenodd" d="M44.7053 19.2947C44.3158 19.6842 43.6842 19.6842 43.2947 19.2947C42.9054 18.9054 42.9051 18.2743 43.2941 17.8847L48.17 13L37 13C36.4477 13 36 12.5523 36 12C36 11.4477 36.4477 11 37 11L48.17 11L43.2941 6.11531C42.9051 5.72568 42.9054 5.0946 43.2947 4.70531C43.6842 4.31578 44.3158 4.31578 44.7053 4.70531L52 12L44.7053 19.2947Z" fill="#C2D1D9"/>
<mask id="mask1_1_258197" style="mask-type:alpha" maskUnits="userSpaceOnUse" x="36" y="4" width="16" height="16">
<path fill-rule="evenodd" clip-rule="evenodd" d="M44.7053 19.2947C44.3158 19.6842 43.6842 19.6842 43.2947 19.2947C42.9054 18.9054 42.9051 18.2743 43.2941 17.8847L48.17 13L37 13C36.4477 13 36 12.5523 36 12C36 11.4477 36.4477 11 37 11L48.17 11L43.2941 6.11531C42.9051 5.72568 42.9054 5.0946 43.2947 4.70531C43.6842 4.31578 44.3158 4.31578 44.7053 4.70531L52 12L44.7053 19.2947Z" fill="white"/>
</mask>
<g mask="url(#mask1_1_258197)">
<rect x="56" y="24" width="24" height="24" transform="rotate(180 56 24)" fill="#424B5A"/>
</g>
</svg>
