<svg width="236" height="161" viewBox="0 0 236 161" fill="none" xmlns="http://www.w3.org/2000/svg">
<path fill-rule="evenodd" clip-rule="evenodd" d="M207 23.322C206.994 23.218 206.962 23.1173 206.906 23.0292C206.851 22.9411 206.775 22.8686 206.685 22.8181C206.277 22.6111 205.682 22.47 204.471 22.47C201.738 22.47 199.321 23.838 198.266 26.127V23.3309C198.267 23.2733 198.255 23.2162 198.234 23.1628C198.212 23.1095 198.18 23.0612 198.14 23.0204C198.099 22.9796 198.051 22.9471 197.998 22.925C197.946 22.9029 197.889 22.8915 197.832 22.8915H193.74C193.682 22.8915 193.626 22.9029 193.573 22.925C193.52 22.9471 193.472 22.9796 193.432 23.0204C193.391 23.0612 193.359 23.1095 193.338 23.1628C193.316 23.2162 193.305 23.2733 193.305 23.3309V42.18C193.305 42.4215 193.499 42.618 193.74 42.618H198.027C198.084 42.618 198.14 42.6067 198.193 42.5847C198.246 42.5626 198.294 42.5303 198.334 42.4896C198.374 42.449 198.406 42.4007 198.428 42.3475C198.45 42.2944 198.461 42.2375 198.461 42.18V33.702C198.461 29.9145 201.073 28.032 204.471 28.032C205.264 28.032 206.055 28.2091 206.453 28.3411C206.725 28.4311 207 28.2059 207 27.9164V23.322ZM179.606 37.992C176.675 37.992 174.41 35.9026 174.41 32.7466C174.41 29.5906 176.677 27.4995 179.606 27.4995C182.535 27.4995 184.801 29.5906 184.801 32.7466C184.801 35.9026 182.535 37.9935 179.606 37.9935V37.992ZM179.606 22.4084C173.59 22.4084 169.099 26.5921 169.099 32.7466C169.099 38.9011 173.591 43.0831 179.606 43.0831C185.619 43.0831 190.111 38.901 190.111 32.748C190.111 26.592 185.619 22.4084 179.606 22.4084ZM155.754 37.9935C152.823 37.9935 150.557 35.9026 150.557 32.7466C150.557 29.5906 152.823 27.4995 155.754 27.4995C158.683 27.4995 160.947 29.5906 160.947 32.7466C160.947 35.9026 158.683 37.9935 155.754 37.9935ZM155.754 22.4084C149.738 22.4084 145.245 26.5921 145.245 32.7466C145.245 38.9011 149.738 43.0831 155.754 43.0831C161.766 43.0831 166.259 38.9011 166.259 32.7466C166.259 26.5921 161.766 22.4084 155.754 22.4084ZM131.934 38.0414C129.005 38.0414 126.817 35.9506 126.817 32.7556C126.817 29.5591 129.005 27.468 131.934 27.468C134.826 27.468 137.051 29.4811 137.051 32.7556C137.051 35.9896 134.826 38.0414 131.934 38.0414ZM141.617 15.0015H137.33C137.214 15.0015 137.104 15.0477 137.022 15.1298C136.941 15.212 136.895 15.3233 136.895 15.4395V25.7325C135.567 23.838 133.38 22.377 130.335 22.377C125.569 22.377 121.506 26.0881 121.506 32.7556C121.506 39.4231 125.567 43.131 130.411 43.131C133.263 43.131 135.489 41.8681 136.897 39.8566V42.18C136.897 42.4215 137.09 42.618 137.328 42.618H141.617C141.855 42.618 142.05 42.423 142.05 42.18V15.4395C142.05 15.3235 142.004 15.2125 141.923 15.1304C141.842 15.0483 141.732 15.0019 141.617 15.0015ZM118.666 36.6465C118.666 41.1465 115.425 43.0785 110.231 43.0785C106.642 43.0785 103.555 42.1035 101.789 40.0845C101.723 40.0053 101.685 39.9054 101.683 39.8015C101.681 39.6975 101.715 39.5961 101.779 39.5145L104.257 36.2655C104.295 36.2164 104.344 36.1763 104.399 36.1479C104.454 36.1196 104.515 36.1037 104.576 36.1013C104.638 36.0988 104.7 36.1099 104.757 36.1339C104.814 36.1578 104.865 36.1941 104.907 36.2401C106.216 37.5946 108.231 38.4225 110.739 38.4225C112.182 38.4225 113.354 38.0294 113.354 36.924C113.354 35.8589 112.301 35.6221 109.019 34.9111C106.129 34.3201 102.535 32.979 102.535 28.6785C102.535 24.693 105.661 22.4055 110.776 22.4055C114.142 22.4055 116.563 23.4315 118.267 25.0455C118.431 25.2 118.446 25.461 118.308 25.6395L115.956 28.7236C115.921 28.7709 115.877 28.8105 115.827 28.8398C115.777 28.8692 115.721 28.8877 115.663 28.8942C115.605 28.9007 115.546 28.8951 115.491 28.8776C115.435 28.86 115.384 28.831 115.34 28.7924C114.187 27.7529 112.269 27.1005 110.386 27.1005C108.785 27.1005 107.887 27.6136 107.887 28.4806C107.887 29.4676 108.943 29.7045 112.418 30.4545C115.814 31.2045 118.666 32.505 118.666 36.648V36.6465ZM98.8423 36.6584C98.8423 41.1569 95.5993 43.0906 90.4061 43.0906C86.818 43.0906 83.7312 42.1155 81.9654 40.095C81.8988 40.0161 81.8614 39.9164 81.8592 39.8128C81.857 39.7092 81.8903 39.6081 81.9535 39.5264L84.4319 36.2759C84.4704 36.2272 84.5188 36.1874 84.574 36.1593C84.6292 36.1312 84.6897 36.1156 84.7515 36.1133C84.8132 36.1111 84.8748 36.1222 84.9318 36.1461C84.9889 36.1701 85.0401 36.2062 85.082 36.252C86.3926 37.605 88.4068 38.4346 90.9134 38.4346C92.3578 38.4346 93.5301 38.0416 93.5301 36.9346C93.5301 35.8696 92.4754 35.634 89.1952 34.923C86.3033 34.3305 82.7092 32.9894 82.7092 28.6904C82.7092 24.7049 85.8362 22.4174 90.9521 22.4174C94.317 22.4174 96.7359 23.4419 98.4422 25.0574C98.6058 25.2119 98.6206 25.4714 98.4838 25.6514L96.1304 28.7355C95.9817 28.9305 95.699 28.9695 95.516 28.8045C94.3616 27.765 92.4457 27.111 90.5624 27.111C88.9602 27.111 88.0616 27.6255 88.0616 28.4925C88.0616 29.4795 89.1179 29.7166 92.5929 30.4666C95.9906 31.2151 98.8409 32.5169 98.8409 36.6584H98.8423ZM73.1469 34.6485C73.1469 36.8175 71.3916 38.712 68.6559 38.712C66.8589 38.712 65.883 37.8824 65.883 36.6194C65.883 35.5154 66.7041 34.6859 68.3048 34.4489L73.1469 33.858V34.647V34.6485ZM69.7507 22.4564C65.6598 22.4564 62.579 23.8394 61.2015 26.5739C61.1561 26.6688 61.1453 26.7769 61.1711 26.879C61.197 26.9811 61.2578 27.0707 61.3428 27.132L64.4683 29.3881C64.6646 29.5291 64.9413 29.4824 65.0588 29.2679C65.9276 27.6899 67.8704 27.1514 69.7507 27.1514C72.055 27.1514 73.1469 27.9795 73.1469 29.124V29.439C73.1469 29.913 72.8747 30.1499 72.1324 30.2294L66.7815 30.702C63.1889 31.056 60.5335 33.3061 60.5335 36.8956C60.5335 40.5256 63.2663 43.0499 67.1326 43.0499C70.1792 43.0499 72.1324 41.5516 73.1469 39.9736V42.2175C73.1469 42.4605 73.3403 42.657 73.5813 42.657H77.8686C77.9838 42.657 78.0943 42.6108 78.1758 42.5286C78.2572 42.4465 78.303 42.3352 78.303 42.219V30.4651C78.303 24.9811 75.4512 22.4564 69.7493 22.4564H69.7507ZM56.996 15.438V42.1785C56.996 42.42 56.8027 42.6165 56.5617 42.6165H52.2357C52.1205 42.6165 52.01 42.5703 51.9285 42.4882C51.8471 42.406 51.8013 42.2947 51.8013 42.1785V15.4305C51.8013 15.192 51.9917 15 52.2268 15H56.5617C56.8012 15 56.996 15.195 56.996 15.438ZM37.4281 38.0206C34.4975 38.0206 32.3108 35.9295 32.3108 32.7345C32.3108 29.5395 34.499 27.447 37.4281 27.447C40.3587 27.447 42.5052 29.46 42.5052 32.7345C42.5052 35.9685 40.3572 38.0206 37.4281 38.0206ZM47.1094 22.8704H42.8281C42.7113 22.8704 42.5994 22.9173 42.5168 23.0006C42.4342 23.0839 42.3878 23.1967 42.3878 23.3145V25.6335C41.2944 23.8575 39.0288 22.3965 36.0223 22.3965C31.1787 22.3965 27 26.067 27 32.6565C27 39.204 30.9838 42.7936 36.1785 42.7936C38.9901 42.7936 41.1768 41.61 42.4666 39.756V41.0189C42.4666 43.8584 41.098 46.1085 36.7244 46.1085C34.5258 46.1085 32.76 45.369 31.2114 43.9845C31.1652 43.9415 31.11 43.9093 31.05 43.8904C30.9899 43.8714 30.9265 43.8661 30.8642 43.8748C30.8019 43.8836 30.7422 43.9061 30.6896 43.9409C30.637 43.9757 30.5927 44.0219 30.5598 44.076L28.6185 47.3641C28.3671 47.7886 28.4013 48.0286 28.559 48.1681C30.5553 49.9186 33.1498 51 36.9208 51C45.122 51 47.5438 46.386 47.5438 41.295V23.3101C47.544 23.2524 47.5329 23.1953 47.5112 23.142C47.4895 23.0887 47.4575 23.0402 47.4171 22.9993C47.3768 22.9585 47.3288 22.926 47.276 22.9039C47.2232 22.8818 47.1666 22.8704 47.1094 22.8704Z" fill="#0CAA41"/>
<path fill-rule="evenodd" clip-rule="evenodd" d="M75 91.6438L82.2432 95.894C83.0036 96.3402 83.9274 95.6555 83.7217 94.7982L81.81 86.8313L88.1453 81.4955C88.8278 80.9206 88.4727 79.8074 87.5833 79.734L79.215 79.0438L75.9167 71.4778C75.5677 70.6773 74.4323 70.6773 74.0833 71.4778L70.785 79.0438L62.4167 79.734C61.5273 79.8074 61.1722 80.9206 61.8547 81.4955L68.19 86.8313L66.2783 94.7982C66.0726 95.6555 66.9964 96.3402 67.7568 95.894L75 91.6438Z" fill="#00A738"/>
<mask id="mask0_1_243555" style="mask-type:alpha" maskUnits="userSpaceOnUse" x="61" y="70" width="28" height="27">
<path fill-rule="evenodd" clip-rule="evenodd" d="M75 91.6438L82.2432 95.894C83.0036 96.3402 83.9274 95.6555 83.7217 94.7982L81.81 86.8313L88.1453 81.4955C88.8278 80.9206 88.4727 79.8074 87.5833 79.734L79.215 79.0438L75.9167 71.4778C75.5677 70.6773 74.4323 70.6773 74.0833 71.4778L70.785 79.0438L62.4167 79.734C61.5273 79.8074 61.1722 80.9206 61.8547 81.4955L68.19 86.8313L66.2783 94.7982C66.0726 95.6555 66.9964 96.3402 67.7568 95.894L75 91.6438Z" fill="white"/>
</mask>
<g mask="url(#mask0_1_243555)">
<rect x="57" y="65" width="36" height="35" fill="#0DAA41"/>
</g>
<path fill-rule="evenodd" clip-rule="evenodd" d="M111 91.6438L118.243 95.894C119.004 96.3402 119.927 95.6555 119.722 94.7982L117.81 86.8313L124.145 81.4955C124.828 80.9206 124.473 79.8074 123.583 79.734L115.215 79.0438L111.917 71.4778C111.568 70.6773 110.432 70.6773 110.083 71.4778L106.785 79.0438L98.4167 79.734C97.5273 79.8074 97.1722 80.9206 97.8547 81.4955L104.19 86.8313L102.278 94.7982C102.073 95.6555 102.996 96.3402 103.757 95.894L111 91.6438Z" fill="#00A738"/>
<mask id="mask1_1_243555" style="mask-type:alpha" maskUnits="userSpaceOnUse" x="97" y="70" width="28" height="27">
<path fill-rule="evenodd" clip-rule="evenodd" d="M111 91.6438L118.243 95.894C119.004 96.3402 119.927 95.6555 119.722 94.7982L117.81 86.8313L124.145 81.4955C124.828 80.9206 124.473 79.8074 123.583 79.734L115.215 79.0438L111.917 71.4778C111.568 70.6773 110.432 70.6773 110.083 71.4778L106.785 79.0438L98.4167 79.734C97.5273 79.8074 97.1722 80.9206 97.8547 81.4955L104.19 86.8313L102.278 94.7982C102.073 95.6555 102.996 96.3402 103.757 95.894L111 91.6438Z" fill="white"/>
</mask>
<g mask="url(#mask1_1_243555)">
<rect x="93" y="65" width="36" height="35" fill="#0DAA41"/>
</g>
<path fill-rule="evenodd" clip-rule="evenodd" d="M146.5 91.6438L153.484 95.8587C154.241 96.3158 155.175 95.6368 154.974 94.7754L153.121 86.8313L159.292 81.4852C159.961 80.906 159.603 79.8078 158.722 79.733L150.598 79.0438L147.421 71.5474C147.076 70.7343 145.924 70.7343 145.579 71.5474L142.402 79.0438L134.278 79.733C133.397 79.8078 133.04 80.906 133.708 81.4852L139.879 86.8313L138.026 94.7754C137.825 95.6368 138.759 96.3158 139.517 95.8587L146.5 91.6438Z" fill="#00A738"/>
<mask id="mask2_1_243555" style="mask-type:alpha" maskUnits="userSpaceOnUse" x="133" y="70" width="27" height="27">
<path fill-rule="evenodd" clip-rule="evenodd" d="M146.5 91.6438L153.484 95.8587C154.241 96.3158 155.175 95.6368 154.974 94.7754L153.121 86.8313L159.292 81.4852C159.961 80.906 159.603 79.8078 158.722 79.733L150.598 79.0438L147.421 71.5474C147.076 70.7343 145.924 70.7343 145.579 71.5474L142.402 79.0438L134.278 79.733C133.397 79.8078 133.04 80.906 133.708 81.4852L139.879 86.8313L138.026 94.7754C137.825 95.6368 138.759 96.3158 139.517 95.8587L146.5 91.6438Z" fill="white"/>
</mask>
<g mask="url(#mask2_1_243555)">
<rect x="129" y="65" width="35" height="35" fill="#0DAA41"/>
</g>
<path fill-rule="evenodd" clip-rule="evenodd" d="M182 91.6438L189.243 95.894C190.004 96.3402 190.927 95.6555 190.722 94.7982L188.81 86.8313L195.145 81.4955C195.828 80.9206 195.473 79.8074 194.583 79.734L186.215 79.0438L182.917 71.4778C182.568 70.6773 181.432 70.6773 181.083 71.4778L177.785 79.0438L169.417 79.734C168.527 79.8074 168.172 80.9206 168.855 81.4955L175.19 86.8313L173.278 94.7982C173.073 95.6555 173.996 96.3402 174.757 95.894L182 91.6438Z" fill="#00A738"/>
<mask id="mask3_1_243555" style="mask-type:alpha" maskUnits="userSpaceOnUse" x="168" y="70" width="28" height="27">
<path fill-rule="evenodd" clip-rule="evenodd" d="M182 91.6438L189.243 95.894C190.004 96.3402 190.927 95.6555 190.722 94.7982L188.81 86.8313L195.145 81.4955C195.828 80.9206 195.473 79.8074 194.583 79.734L186.215 79.0438L182.917 71.4778C182.568 70.6773 181.432 70.6773 181.083 71.4778L177.785 79.0438L169.417 79.734C168.527 79.8074 168.172 80.9206 168.855 81.4955L175.19 86.8313L173.278 94.7982C173.073 95.6555 173.996 96.3402 174.757 95.894L182 91.6438Z" fill="white"/>
</mask>
<g mask="url(#mask3_1_243555)">
<rect x="164" y="65" width="36" height="35" fill="#0DAA41"/>
</g>
<path fill-rule="evenodd" clip-rule="evenodd" d="M218 91.6438L225.243 95.894C226.004 96.3402 226.927 95.6555 226.722 94.7982L224.81 86.8313L231.145 81.4955C231.828 80.9206 231.473 79.8074 230.583 79.734L222.215 79.0438L218.917 71.4778C218.568 70.6773 217.432 70.6773 217.083 71.4778L213.785 79.0438L205.417 79.734C204.527 79.8074 204.172 80.9206 204.855 81.4955L211.19 86.8313L209.278 94.7982C209.073 95.6555 209.996 96.3402 210.757 95.894L218 91.6438Z" fill="#00A738"/>
<mask id="mask4_1_243555" style="mask-type:alpha" maskUnits="userSpaceOnUse" x="204" y="70" width="28" height="27">
<path fill-rule="evenodd" clip-rule="evenodd" d="M218 91.6438L225.243 95.894C226.004 96.3402 226.927 95.6555 226.722 94.7982L224.81 86.8313L231.145 81.4955C231.828 80.9206 231.473 79.8074 230.583 79.734L222.215 79.0438L218.917 71.4778C218.568 70.6773 217.432 70.6773 217.083 71.4778L213.785 79.0438L205.417 79.734C204.527 79.8074 204.172 80.9206 204.855 81.4955L211.19 86.8313L209.278 94.7982C209.073 95.6555 209.996 96.3402 210.757 95.894L218 91.6438Z" fill="white"/>
</mask>
<g mask="url(#mask4_1_243555)">
<rect x="200" y="65" width="36" height="35" fill="#0DAA41"/>
</g>
<path d="M14.248 89.496H7.912L14.248 79.74V89.496ZM13.672 73.8L0.856 93.528H14.176V99H18.496V93.528H21.268V89.496H18.496V73.8H13.672ZM24.2118 96.588C24.2118 97.38 24.4638 98.064 25.0398 98.604C25.5798 99.18 26.2638 99.432 27.0558 99.432C27.8478 99.432 28.4958 99.18 29.0718 98.604C29.6118 98.064 29.8998 97.38 29.8998 96.588C29.8998 95.796 29.6118 95.148 29.0718 94.572C28.4958 94.032 27.8478 93.744 27.0558 93.744C26.2638 93.744 25.5798 94.032 25.0398 94.572C24.4638 95.148 24.2118 95.796 24.2118 96.588ZM45.7657 80.676C45.7657 81.72 45.4057 82.548 44.6857 83.124C43.9657 83.736 43.1377 84.024 42.1297 84.024C41.1217 84.024 40.2577 83.736 39.5377 83.124C38.8177 82.548 38.4937 81.72 38.4937 80.676C38.4937 79.668 38.8177 78.84 39.5377 78.228C40.2577 77.652 41.1217 77.328 42.1297 77.328C43.1377 77.328 43.9657 77.652 44.6857 78.228C45.4057 78.84 45.7657 79.668 45.7657 80.676ZM42.1297 95.472C41.4097 95.472 40.7617 95.364 40.2577 95.148C39.7177 94.932 39.2857 94.644 38.9257 94.284C38.5657 93.924 38.2777 93.492 38.0977 92.988C37.9177 92.52 37.8457 92.016 37.8457 91.512C37.8457 91.008 37.9177 90.54 38.0977 90.072C38.2777 89.604 38.5657 89.172 38.9257 88.812C39.2857 88.452 39.7177 88.164 40.2577 87.948C40.7617 87.732 41.4097 87.624 42.1297 87.624C42.8497 87.624 43.4617 87.732 44.0017 87.948C44.5057 88.164 44.9737 88.452 45.3337 88.812C45.6937 89.172 45.9457 89.604 46.1257 90.072C46.3057 90.54 46.4137 91.008 46.4137 91.512C46.4137 92.016 46.3057 92.52 46.1257 92.988C45.9457 93.492 45.6937 93.924 45.3337 94.284C44.9737 94.644 44.5057 94.932 44.0017 95.148C43.4617 95.364 42.8497 95.472 42.1297 95.472ZM42.1297 73.368C40.7977 73.368 39.6457 73.584 38.6737 73.98C37.6657 74.412 36.8377 74.952 36.1897 75.6C35.5417 76.284 35.0377 77.04 34.7137 77.904C34.3537 78.768 34.2097 79.668 34.2097 80.532C34.2097 81.18 34.2817 81.792 34.4617 82.296C34.6057 82.836 34.8217 83.304 35.1097 83.7C35.3617 84.132 35.6497 84.492 36.0097 84.816C36.3337 85.14 36.6577 85.392 37.0177 85.608C36.5857 85.824 36.1897 86.076 35.7937 86.4C35.3617 86.724 35.0017 87.12 34.6417 87.624C34.2817 88.128 34.0297 88.704 33.8137 89.352C33.5977 90 33.4897 90.756 33.4897 91.548C33.4897 92.628 33.6697 93.636 34.0657 94.572C34.4257 95.544 35.0017 96.372 35.7577 97.092C36.4777 97.812 37.3777 98.388 38.4577 98.82C39.5377 99.252 40.7617 99.432 42.1297 99.432C43.4977 99.432 44.6857 99.252 45.7657 98.82C46.8457 98.388 47.7457 97.812 48.5017 97.092C49.2217 96.372 49.7977 95.544 50.1937 94.572C50.5537 93.636 50.7697 92.628 50.7697 91.548C50.7697 90.756 50.6617 90 50.4457 89.352C50.2297 88.704 49.9417 88.128 49.5817 87.624C49.2217 87.12 48.8617 86.724 48.4297 86.4C47.9977 86.076 47.6017 85.824 47.2417 85.608C47.5657 85.392 47.8897 85.14 48.2497 84.816C48.5737 84.492 48.8617 84.132 49.1497 83.7C49.4017 83.304 49.6177 82.836 49.7977 82.296C49.9417 81.792 50.0497 81.18 50.0497 80.532C50.0497 79.668 49.8697 78.768 49.5457 77.904C49.1857 77.04 48.6817 76.284 48.0337 75.6C47.3857 74.952 46.5577 74.412 45.5857 73.98C44.5777 73.584 43.4257 73.368 42.1297 73.368Z" fill="black"/>
<path d="M39.702 135.196H37.992V131.452H39.702C40.386 131.452 40.944 131.614 41.34 131.92C41.736 132.244 41.952 132.712 41.952 133.324C41.952 133.954 41.736 134.422 41.34 134.728C40.944 135.052 40.386 135.196 39.702 135.196ZM35.832 129.4V142H37.992V137.248H38.982L41.97 142H44.49L41.34 137.104C42.24 136.888 42.924 136.438 43.41 135.754C43.896 135.088 44.148 134.296 44.148 133.36C44.148 132.784 44.04 132.244 43.842 131.758C43.644 131.272 43.356 130.858 42.996 130.498C42.636 130.156 42.186 129.886 41.682 129.688C41.16 129.508 40.584 129.4 39.972 129.4H35.832ZM51.9241 136.942H47.6941C47.6941 136.762 47.7481 136.564 47.8381 136.348C47.9281 136.15 48.0541 135.97 48.2341 135.79C48.4141 135.628 48.6301 135.484 48.8821 135.376C49.1341 135.268 49.4221 135.214 49.7821 135.214C50.1421 135.214 50.4481 135.268 50.7181 135.376C50.9701 135.484 51.1861 135.628 51.3661 135.808C51.5461 135.988 51.6721 136.168 51.7621 136.366C51.8521 136.582 51.9061 136.762 51.9241 136.942ZM49.7821 133.252C49.1701 133.252 48.5941 133.378 48.0721 133.612C47.5321 133.846 47.0821 134.17 46.7041 134.566C46.3261 134.962 46.0381 135.43 45.8221 135.97C45.6061 136.51 45.4981 137.086 45.4981 137.698C45.4981 138.346 45.6061 138.94 45.8401 139.48C46.0741 140.038 46.3981 140.524 46.8121 140.92C47.2261 141.334 47.7121 141.658 48.2701 141.874C48.8281 142.108 49.4401 142.216 50.0881 142.216C50.8441 142.216 51.5101 142.09 52.1041 141.82C52.6801 141.568 53.1481 141.28 53.5081 140.992L52.4281 139.372C52.0861 139.696 51.7081 139.912 51.2941 140.038C50.8621 140.182 50.4841 140.236 50.1241 140.236C49.7641 140.236 49.4581 140.182 49.1881 140.074C48.9001 139.966 48.6661 139.84 48.4501 139.678C48.2341 139.516 48.0721 139.336 47.9461 139.12C47.8201 138.922 47.7301 138.724 47.6941 138.508H54.0661C54.0661 138.346 54.0841 138.184 54.0841 138.04V137.698C54.0841 137.05 53.9581 136.438 53.7421 135.898C53.5081 135.358 53.2021 134.89 52.8061 134.494C52.4101 134.098 51.9601 133.792 51.4381 133.576C50.9161 133.36 50.3581 133.252 49.7821 133.252ZM59.3258 133.252C58.6598 133.252 58.0298 133.342 57.4358 133.486C56.8418 133.648 56.3378 133.828 55.9058 134.026L56.6078 135.808C57.1118 135.592 57.5798 135.43 58.0298 135.322C58.4618 135.232 58.8398 135.178 59.1278 135.178C59.3258 135.178 59.5418 135.214 59.7578 135.25C59.9738 135.304 60.1898 135.394 60.3698 135.502C60.5498 135.61 60.6938 135.772 60.8198 135.952C60.9278 136.15 60.9998 136.384 60.9998 136.654V137.14C60.6758 136.942 60.3158 136.798 59.9018 136.69C59.4698 136.582 59.0738 136.528 58.6778 136.528C58.1918 136.528 57.7418 136.6 57.3278 136.744C56.9138 136.888 56.5538 137.068 56.2478 137.32C55.9418 137.572 55.7078 137.878 55.5278 138.238C55.3478 138.598 55.2758 138.976 55.2758 139.408C55.2758 139.84 55.3478 140.236 55.5278 140.578C55.6898 140.938 55.9238 141.226 56.2118 141.478C56.4998 141.73 56.8238 141.91 57.2018 142.036C57.5798 142.162 57.9758 142.216 58.3898 142.216C58.9838 142.216 59.5238 142.108 60.0098 141.856C60.4958 141.604 60.8738 141.298 61.1618 140.92V142H63.1598V136.438C63.1598 135.466 62.8178 134.692 62.1338 134.116C61.4498 133.54 60.5138 133.252 59.3258 133.252ZM58.9838 140.416C58.8218 140.416 58.6598 140.416 58.4798 140.38C58.2998 140.344 58.1198 140.29 57.9758 140.218C57.8318 140.146 57.7058 140.02 57.6158 139.876C57.5078 139.732 57.4718 139.552 57.4718 139.318C57.4718 139.102 57.5078 138.904 57.6158 138.742C57.7238 138.598 57.8498 138.472 58.0118 138.382C58.1738 138.292 58.3538 138.22 58.5518 138.184C58.7318 138.148 58.9298 138.112 59.1278 138.112C59.3978 138.112 59.7038 138.148 60.0638 138.22C60.4058 138.292 60.7118 138.4 60.9998 138.544V139.426C60.8018 139.678 60.5498 139.894 60.2258 140.11C59.9018 140.326 59.4878 140.416 58.9838 140.416ZM71.3162 136.456V139.012C71.1362 139.336 70.8662 139.606 70.5422 139.84C70.2002 140.092 69.7682 140.2 69.2462 140.2C68.5262 140.2 67.9682 139.966 67.5542 139.498C67.1402 139.03 66.9422 138.454 66.9422 137.734C66.9422 137.032 67.1402 136.438 67.5542 135.97C67.9682 135.502 68.5262 135.268 69.2462 135.268C69.7682 135.268 70.2002 135.394 70.5422 135.628C70.8662 135.88 71.1362 136.15 71.3162 136.456ZM73.4762 142V128.392H71.3162V134.368C71.1002 134.098 70.7942 133.846 70.3982 133.612C70.0022 133.378 69.4982 133.252 68.8862 133.252C68.3462 133.252 67.8242 133.378 67.3202 133.594C66.8162 133.81 66.3662 134.116 65.9882 134.512C65.6102 134.908 65.3042 135.394 65.0882 135.934C64.8542 136.474 64.7462 137.086 64.7462 137.734C64.7462 138.382 64.8542 138.994 65.0882 139.534C65.3042 140.092 65.6102 140.56 65.9882 140.956C66.3662 141.352 66.7982 141.676 67.3022 141.892C67.8062 142.108 68.3282 142.216 68.8862 142.216C69.5342 142.216 70.0742 142.09 70.5062 141.82C70.9382 141.55 71.2622 141.244 71.4782 140.884V142H73.4762ZM85.1557 140.2C84.7957 140.2 84.4537 140.146 84.1657 140.002C83.8777 139.876 83.6257 139.696 83.4277 139.48C83.2117 139.264 83.0677 138.994 82.9597 138.688C82.8517 138.4 82.7977 138.076 82.7977 137.734C82.7977 137.41 82.8517 137.086 82.9597 136.798C83.0677 136.51 83.2117 136.24 83.4277 136.006C83.6257 135.79 83.8777 135.61 84.1657 135.466C84.4537 135.34 84.7957 135.268 85.1557 135.268C85.5157 135.268 85.8397 135.34 86.1277 135.466C86.4157 135.61 86.6677 135.79 86.8837 136.006C87.0817 136.24 87.2437 136.51 87.3517 136.798C87.4597 137.086 87.5137 137.41 87.5137 137.734C87.5137 138.076 87.4597 138.4 87.3517 138.688C87.2437 138.994 87.0817 139.264 86.8837 139.48C86.6677 139.696 86.4157 139.876 86.1277 140.002C85.8397 140.146 85.5157 140.2 85.1557 140.2ZM85.1557 133.252C84.5077 133.252 83.9137 133.378 83.3737 133.594C82.8157 133.828 82.3297 134.152 81.9157 134.548C81.5017 134.962 81.1777 135.448 80.9437 135.988C80.7097 136.528 80.6017 137.122 80.6017 137.734C80.6017 138.364 80.7097 138.958 80.9437 139.498C81.1777 140.038 81.5017 140.524 81.9157 140.92C82.3297 141.316 82.8157 141.64 83.3737 141.874C83.9137 142.108 84.5077 142.216 85.1557 142.216C85.7857 142.216 86.3797 142.108 86.9377 141.874C87.4777 141.64 87.9637 141.316 88.3777 140.92C88.7917 140.524 89.1157 140.038 89.3497 139.498C89.5837 138.958 89.7097 138.364 89.7097 137.734C89.7097 137.122 89.5837 136.528 89.3497 135.988C89.1157 135.448 88.7917 134.962 88.3777 134.548C87.9637 134.152 87.4777 133.828 86.9377 133.594C86.3797 133.378 85.7857 133.252 85.1557 133.252ZM94.3991 142.216C94.7231 142.216 95.0111 142.18 95.2811 142.09C95.5511 142 95.8031 141.892 96.0191 141.748C96.2351 141.604 96.4151 141.46 96.5771 141.28C96.7211 141.1 96.8651 140.938 96.9731 140.758V142H98.9891V133.468H96.8291V139.156C96.6491 139.444 96.4151 139.678 96.1451 139.894C95.8571 140.11 95.4971 140.2 95.0471 140.2C94.5431 140.2 94.1651 140.074 93.8771 139.786C93.5891 139.498 93.4451 139.048 93.4451 138.4V133.468H91.2851V138.994C91.2851 139.516 91.3571 139.966 91.5371 140.362C91.7171 140.758 91.9511 141.1 92.2391 141.37C92.5271 141.658 92.8511 141.856 93.2291 142C93.6071 142.144 94.0031 142.216 94.3991 142.216ZM105.556 133.252C104.98 133.252 104.494 133.414 104.098 133.702C103.702 134.008 103.396 134.35 103.198 134.71V133.468H101.146V142H103.306V136.42C103.468 136.15 103.702 135.898 104.026 135.646C104.332 135.394 104.746 135.268 105.25 135.268C105.43 135.268 105.61 135.286 105.79 135.322C105.97 135.358 106.114 135.412 106.24 135.466L106.996 133.522C106.744 133.432 106.492 133.36 106.24 133.324C105.988 133.288 105.754 133.252 105.556 133.252ZM117.808 133.252C117.232 133.252 116.746 133.414 116.35 133.702C115.954 134.008 115.648 134.35 115.45 134.71V133.468H113.398V142H115.558V136.42C115.72 136.15 115.954 135.898 116.278 135.646C116.584 135.394 116.998 135.268 117.502 135.268C117.682 135.268 117.862 135.286 118.042 135.322C118.222 135.358 118.366 135.412 118.492 135.466L119.248 133.522C118.996 133.432 118.744 133.36 118.492 133.324C118.24 133.288 118.006 133.252 117.808 133.252ZM126.209 136.942H121.979C121.979 136.762 122.033 136.564 122.123 136.348C122.213 136.15 122.339 135.97 122.519 135.79C122.699 135.628 122.915 135.484 123.167 135.376C123.419 135.268 123.707 135.214 124.067 135.214C124.427 135.214 124.733 135.268 125.003 135.376C125.255 135.484 125.471 135.628 125.651 135.808C125.831 135.988 125.957 136.168 126.047 136.366C126.137 136.582 126.191 136.762 126.209 136.942ZM124.067 133.252C123.455 133.252 122.879 133.378 122.357 133.612C121.817 133.846 121.367 134.17 120.989 134.566C120.611 134.962 120.323 135.43 120.107 135.97C119.891 136.51 119.783 137.086 119.783 137.698C119.783 138.346 119.891 138.94 120.125 139.48C120.359 140.038 120.683 140.524 121.097 140.92C121.511 141.334 121.997 141.658 122.555 141.874C123.113 142.108 123.725 142.216 124.373 142.216C125.129 142.216 125.795 142.09 126.389 141.82C126.965 141.568 127.433 141.28 127.793 140.992L126.713 139.372C126.371 139.696 125.993 139.912 125.579 140.038C125.147 140.182 124.769 140.236 124.409 140.236C124.049 140.236 123.743 140.182 123.473 140.074C123.185 139.966 122.951 139.84 122.735 139.678C122.519 139.516 122.357 139.336 122.231 139.12C122.105 138.922 122.015 138.724 121.979 138.508H128.351C128.351 138.346 128.369 138.184 128.369 138.04V137.698C128.369 137.05 128.243 136.438 128.027 135.898C127.793 135.358 127.487 134.89 127.091 134.494C126.695 134.098 126.245 133.792 125.723 133.576C125.201 133.36 124.643 133.252 124.067 133.252ZM131.307 133.468H128.913L133.431 142.432L137.949 133.468H135.627L133.467 138.112L131.307 133.468ZM139.062 130.714C139.062 131.11 139.188 131.452 139.476 131.722C139.746 132.01 140.088 132.136 140.484 132.136C140.88 132.136 141.204 132.01 141.492 131.722C141.762 131.452 141.906 131.11 141.906 130.714C141.906 130.318 141.762 129.994 141.492 129.706C141.204 129.436 140.88 129.292 140.484 129.292C140.088 129.292 139.746 129.436 139.476 129.706C139.188 129.994 139.062 130.318 139.062 130.714ZM139.404 133.468V142H141.564V133.468H139.404ZM149.922 136.942H145.692C145.692 136.762 145.746 136.564 145.836 136.348C145.926 136.15 146.052 135.97 146.232 135.79C146.412 135.628 146.628 135.484 146.88 135.376C147.132 135.268 147.42 135.214 147.78 135.214C148.14 135.214 148.446 135.268 148.716 135.376C148.968 135.484 149.184 135.628 149.364 135.808C149.544 135.988 149.67 136.168 149.76 136.366C149.85 136.582 149.904 136.762 149.922 136.942ZM147.78 133.252C147.168 133.252 146.592 133.378 146.07 133.612C145.53 133.846 145.08 134.17 144.702 134.566C144.324 134.962 144.036 135.43 143.82 135.97C143.604 136.51 143.496 137.086 143.496 137.698C143.496 138.346 143.604 138.94 143.838 139.48C144.072 140.038 144.396 140.524 144.81 140.92C145.224 141.334 145.71 141.658 146.268 141.874C146.826 142.108 147.438 142.216 148.086 142.216C148.842 142.216 149.508 142.09 150.102 141.82C150.678 141.568 151.146 141.28 151.506 140.992L150.426 139.372C150.084 139.696 149.706 139.912 149.292 140.038C148.86 140.182 148.482 140.236 148.122 140.236C147.762 140.236 147.456 140.182 147.186 140.074C146.898 139.966 146.664 139.84 146.448 139.678C146.232 139.516 146.07 139.336 145.944 139.12C145.818 138.922 145.728 138.724 145.692 138.508H152.064C152.064 138.346 152.082 138.184 152.082 138.04V137.698C152.082 137.05 151.956 136.438 151.74 135.898C151.506 135.358 151.2 134.89 150.804 134.494C150.408 134.098 149.958 133.792 149.436 133.576C148.914 133.36 148.356 133.252 147.78 133.252ZM155.074 133.468H152.662L156.784 142.432L159.484 136.348L162.22 142.432L166.342 133.468H164.146L162.31 137.842L160.51 133.468H158.692L156.838 137.842L155.074 133.468ZM168.152 139.102L166.946 140.668C167.126 140.866 167.342 141.064 167.594 141.244C167.846 141.424 168.152 141.586 168.476 141.73C168.8 141.874 169.142 142 169.538 142.09C169.934 142.18 170.348 142.216 170.816 142.216C171.302 142.216 171.77 142.162 172.22 142.036C172.652 141.928 173.048 141.748 173.39 141.514C173.732 141.28 174.002 140.992 174.218 140.632C174.416 140.29 174.524 139.894 174.524 139.426C174.524 139.03 174.434 138.688 174.272 138.4C174.11 138.112 173.894 137.878 173.642 137.68C173.372 137.5 173.066 137.338 172.706 137.212C172.346 137.104 171.986 136.996 171.626 136.906C170.906 136.762 170.384 136.618 170.078 136.51C169.754 136.402 169.61 136.222 169.61 135.97C169.61 135.718 169.754 135.502 170.078 135.358C170.384 135.214 170.726 135.142 171.122 135.142C171.554 135.142 171.968 135.232 172.346 135.376C172.706 135.538 173.03 135.7 173.282 135.88L174.362 134.296C174.038 134.062 173.588 133.828 173.048 133.594C172.508 133.378 171.86 133.252 171.104 133.252C170.528 133.252 170.006 133.342 169.574 133.486C169.124 133.63 168.746 133.846 168.44 134.098C168.116 134.35 167.882 134.656 167.72 134.98C167.558 135.304 167.486 135.646 167.486 136.006C167.486 136.402 167.576 136.744 167.756 137.032C167.936 137.32 168.17 137.554 168.476 137.77C168.764 137.986 169.106 138.148 169.484 138.292C169.862 138.436 170.258 138.544 170.654 138.616C170.87 138.688 171.086 138.742 171.302 138.778C171.518 138.814 171.698 138.868 171.842 138.922C171.986 138.994 172.112 139.066 172.202 139.156C172.292 139.246 172.346 139.354 172.346 139.498C172.346 139.786 172.184 140.002 171.878 140.128C171.572 140.272 171.23 140.326 170.852 140.326C170.528 140.326 170.222 140.29 169.952 140.218C169.682 140.146 169.43 140.038 169.214 139.912C168.998 139.804 168.8 139.66 168.62 139.516C168.44 139.372 168.296 139.246 168.152 139.102Z" fill="#424B5A"/>
<path d="M34.5 143.386H175.1V144.07H34.5V143.386Z" fill="#424B5A"/>
<path fill-rule="evenodd" clip-rule="evenodd" d="M190.088 128.921C189.763 128.597 189.237 128.597 188.912 128.921C188.588 129.246 188.588 129.771 188.912 130.096L192.975 134.167H183.667C183.206 134.167 182.833 134.54 182.833 135C182.833 135.46 183.206 135.833 183.667 135.833H192.975L188.912 139.904C188.588 140.229 188.588 140.755 188.912 141.079C189.237 141.404 189.763 141.404 190.088 141.079L196.167 135L190.088 128.921Z" fill="black" fill-opacity="0.7"/>
<mask id="mask5_1_243555" style="mask-type:alpha" maskUnits="userSpaceOnUse" x="182" y="128" width="15" height="14">
<path fill-rule="evenodd" clip-rule="evenodd" d="M190.088 128.921C189.763 128.597 189.237 128.597 188.912 128.921C188.588 129.246 188.588 129.771 188.912 130.096L192.975 134.167H183.667C183.206 134.167 182.833 134.54 182.833 135C182.833 135.46 183.206 135.833 183.667 135.833H192.975L188.912 139.904C188.588 140.229 188.588 140.755 188.912 141.079C189.237 141.404 189.763 141.404 190.088 141.079L196.167 135L190.088 128.921Z" fill="white"/>
</mask>
<g mask="url(#mask5_1_243555)">
<rect x="179.5" y="125" width="20" height="20" fill="#424B5A"/>
</g>
</svg>
