<svg width="1052" height="28" viewBox="0 0 1052 28" fill="none" xmlns="http://www.w3.org/2000/svg">
<g clip-path="url(#clip0_1_90147)">
<g clip-path="url(#clip1_1_90147)">
<path d="M64.4704 22.038L59.7803 15.7116L64.4704 9.38513H61.1527L56.4388 15.7116V5.17218H53.8188V22.035H56.4388V15.7116L61.1525 22.038H64.4704Z" fill="#8F90A6"/>
<path d="M37.0924 5.1723V10.5002C36.1187 9.79755 34.9387 9.38522 33.6664 9.38522C30.3284 9.38522 27.6226 12.2169 27.6226 15.7102C27.6226 19.2036 30.3284 22.0351 33.6664 22.0351C34.9387 22.0351 36.1187 21.6226 37.0924 20.9202V22.0351H39.7122V5.1723H37.0924ZM33.6664 19.2953C31.7742 19.2953 30.2403 17.6903 30.2403 15.71C30.2403 13.7299 31.7742 12.1245 33.6664 12.1245C35.5585 12.1245 37.0924 13.7299 37.0924 15.71C37.0924 17.6903 35.5585 19.2953 33.6664 19.2953Z" fill="#8F90A6"/>
<path d="M69.3366 9.38525C65.9988 9.38525 63.293 12.217 63.293 15.7102C63.293 19.2036 65.9988 22.0351 69.3366 22.0351C72.6746 22.0351 75.3806 19.2034 75.3806 15.7102C75.3806 12.2168 72.6746 9.38525 69.3366 9.38525ZM69.3366 19.2953C67.4446 19.2953 65.9106 17.6903 65.9106 15.71C65.9106 13.73 67.4446 12.1245 69.3366 12.1245C71.2293 12.1245 72.7626 13.73 72.7626 15.71C72.7626 17.6903 71.2293 19.2953 69.3366 19.2953Z" fill="#8F90A6"/>
<path d="M96.7454 9.38811V10.5003C95.7707 9.79758 94.5914 9.38525 93.3187 9.38525C89.9807 9.38525 87.2754 12.217 87.2754 15.7102C87.2754 19.2036 89.9807 22.0351 93.3187 22.0351C94.5914 22.0351 95.7707 21.6227 96.7454 20.9202V22.0351H99.3647V9.38811H96.7454ZM93.3187 19.2953C91.4267 19.2953 89.8927 17.6903 89.8927 15.71C89.8927 13.73 91.4267 12.1245 93.3187 12.1245C95.2114 12.1245 96.7454 13.73 96.7454 15.71C96.7454 17.6903 95.2114 19.2953 93.3187 19.2953Z" fill="#8F90A6"/>
<path d="M78.9089 15.6204H76.2896V22.035H78.9089V15.6204Z" fill="#8F90A6"/>
<path d="M76.2925 15.7116H78.9098C78.9105 13.7324 80.4438 12.1284 82.3345 12.1276V9.38812C78.9978 9.38868 76.2931 12.2195 76.2925 15.7116Z" fill="#8F90A6"/>
<path d="M86.1649 9.388H83.5449V22.0349H86.1649V9.388Z" fill="#8F90A6"/>
<path d="M84.8609 7.92694C85.5876 7.92694 86.1769 7.31027 86.1769 6.54973C86.1769 5.78898 85.5876 5.1723 84.8609 5.1723C84.1343 5.1723 83.5449 5.78898 83.5449 6.54973C83.5449 7.31006 84.1343 7.92694 84.8609 7.92694Z" fill="#8F90A6"/>
<path d="M49.1873 18.2412C48.5679 18.8921 47.7124 19.2953 46.7651 19.2953C45.2619 19.2953 43.9878 18.2807 43.5265 16.8716H47.3017V16.8706H52.7056C52.7724 16.494 52.8089 16.1066 52.8089 15.71C52.8089 12.2168 50.1031 9.38489 46.7651 9.38489C43.9485 9.38489 41.582 11.4011 40.9115 14.1296H40.9105V14.1332C40.787 14.6374 40.7212 15.1652 40.7212 15.7099C40.7212 19.2033 43.4271 22.0348 46.7651 22.0348C49.2426 22.0348 51.371 20.474 52.304 18.241H49.1873V18.2412ZM46.7651 12.1247C48.1145 12.1247 49.2784 12.9433 49.8369 14.1298H43.6932C44.2517 12.9433 45.4157 12.1247 46.7651 12.1247Z" fill="#8F90A6"/>
<path d="M0.472168 -0.202698V2.53906V26.07V28.7801V28.8115H8.12704V26.07H3.09206V2.53906H21.0283V26.07H13.37V22.7728H10.7502V26.07H10.7469V28.8115H10.7502H13.37H21.0283H23.6482V26.07V2.53906V-0.171121V-0.202698" fill="#8F90A6"/>
<path d="M16.6407 8.27425C16.1884 8.36802 15.363 8.64039 15.363 8.64039C15.363 8.64039 15.2138 8.19863 14.7327 7.68346C13.7617 6.64372 12.0682 5.62756 12.0682 5.62756C12.0682 5.62756 10.3746 6.64372 9.40363 7.68346C8.92263 8.19863 8.77336 8.64039 8.77336 8.64039C8.77336 8.64039 7.94803 8.36802 7.49549 8.27425C6.41163 8.04967 5.53857 8.04967 5.53857 8.04967L5.54237 14.5897C5.54237 17.6791 7.98123 21.1296 12.0682 21.1296C16.1551 21.1296 18.594 17.6791 18.594 14.5897L18.5976 8.04967C18.5976 8.04967 17.7246 8.04967 16.6407 8.27425ZM11.4397 9.0777C11.7029 8.81774 12.0682 8.56951 12.0682 8.56951C12.0682 8.56951 12.4334 8.81774 12.6966 9.0777C12.96 9.33765 13.1464 9.63402 13.1464 9.63402C13.1464 9.63402 12.7406 9.84807 12.5236 10.015C12.3878 10.1197 12.2522 10.2435 12.1175 10.3812L12.1177 10.3796C12.1177 10.3796 11.8391 10.1677 11.6128 10.015C11.3864 9.86244 10.9899 9.63402 10.9899 9.63402C10.9899 9.63402 11.1763 9.33765 11.4397 9.0777ZM7.98123 10.9918C7.98123 10.9918 9.23676 11.4741 10.0697 11.9606C10.2691 12.0771 10.4874 12.213 10.7043 12.3527C9.52776 14.3952 8.65576 16.8341 8.64876 16.854C7.98289 15.7736 7.98123 14.5837 7.98123 14.5837V10.9918ZM16.1551 14.5837C16.1551 14.5837 16.1551 18.5737 12.0682 18.5737C10.2135 18.5737 9.20223 17.7517 8.64889 16.854C8.66189 16.8293 9.91396 14.4799 14.0665 11.9605C14.8918 11.4597 16.1551 10.9916 16.1551 10.9916V14.5837Z" fill="#8F90A6"/>
<path d="M255.886 -0.253967H140V28.254H255.886V-0.253967Z" fill="#8F90A6"/>
<path fill-rule="evenodd" clip-rule="evenodd" d="M186.296 6.4674L180.637 16.0666C180.521 16.2791 179.401 17.9208 177.122 18.0753C174.862 18.1719 172.95 16.1053 172.989 13.8841C173.066 11.6823 174.765 9.90536 177.025 9.86673C178.957 9.90536 180.367 11.3346 180.347 11.3539C180.753 11.7016 181.023 11.9527 181.332 12.3969L183.399 8.90101C183.032 8.53404 182.877 8.36021 182.414 8.03187C181.236 7.00821 179.517 6.197 177.102 6.11975C174.785 6.08112 172.428 7.0082 170.632 9.26798C169.512 10.6972 169.068 11.9913 169.01 13.8841C169.029 16.1053 169.86 17.9015 171.076 19.1956C173.162 21.3008 175.673 21.803 177.006 21.803C178.937 21.7257 180.347 21.2622 181.68 20.4124C182.105 20.1226 182.549 19.7557 183.032 19.2728H186.624V21.4553H190.313V6.4674H186.296ZM186.663 16.1439H184.693L186.663 12.7446V16.1439Z" fill="white"/>
<path fill-rule="evenodd" clip-rule="evenodd" d="M193.964 21.5521V10.0215H191.067V6.52557H200.801V10.0215H197.808V21.5521H193.964Z" fill="white"/>
<path fill-rule="evenodd" clip-rule="evenodd" d="M209.242 15.7965H205.302V21.5521H201.478V6.52557H205.302V12.2233H209.242V6.52557H213.105V21.5521H209.242V15.7965Z" fill="white"/>
<path fill-rule="evenodd" clip-rule="evenodd" d="M244.973 6.52547V14.8693L239.217 6.52547H235.76V11.6051C235.374 10.4463 234.679 9.38399 233.713 8.47621C232.187 7.04695 230.198 6.25507 228.112 6.25507C225.891 6.25507 223.94 6.98901 222.395 8.4569C220.85 9.90547 220.019 11.8176 220.019 13.8842C220.019 15.5259 220.444 16.9745 221.255 18.23H218.319V6.52547H214.495V21.552H222.8V19.9682C224.249 21.2044 226.045 21.8224 228.092 21.8224C230.275 21.8224 232.361 20.9919 233.867 19.4854C234.756 18.6162 235.374 17.5733 235.76 16.4337V21.552H239.604V13.1889L245.456 21.552H248.836V6.52547H244.973ZM228.073 18.0947C225.91 18.0947 223.94 16.2792 223.94 13.9035C223.94 11.7017 225.775 9.9441 228.112 9.9441C230.314 9.9441 232.148 11.7017 232.148 13.9035C232.168 16.3758 230.333 18.0947 228.073 18.0947Z" fill="white"/>
<path fill-rule="evenodd" clip-rule="evenodd" d="M169.029 9.77024V6.44818H160.492V12.6288C160.241 10.8325 159.488 9.38396 158.31 8.30235C156.668 6.81515 154.93 6.50612 152.438 6.50612H147.069V21.5327H152.96C155.162 21.5327 156.649 21.243 158.329 19.6785C159.507 18.5583 160.241 17.1483 160.492 15.4873V21.4554H169.029V18.2299H164.259V15.4487H168.392V12.2232H164.259V9.78956H169.029V9.77024ZM152.458 18.2492H150.912V9.75093H152.438C155.258 9.75093 156.784 11.2768 156.784 13.9808C156.784 16.9359 155.393 18.2492 152.458 18.2492Z" fill="white"/>
<path d="M436.123 17.5178C435.914 16.4621 434.965 15.7011 433.951 15.7772C432.818 15.863 431.965 16.7034 431.91 17.8076C431.866 18.35 432.03 18.8887 432.369 19.3149C432.707 19.741 433.195 20.0229 433.733 20.1036C434.745 20.2736 435.752 19.6178 436.074 18.5929C436.11 18.4796 436.074 18.3419 436.184 18.2513V17.6862C436.123 17.6457 436.134 17.5777 436.123 17.5178ZM434.034 19.7846C433.549 19.7846 433.083 19.5918 432.74 19.2487C432.397 18.9056 432.204 18.4402 432.204 17.955C432.204 17.4697 432.397 17.0043 432.74 16.6612C433.083 16.3181 433.549 16.1253 434.034 16.1253C434.519 16.1253 434.985 16.3181 435.328 16.6612C435.671 17.0043 435.864 17.4697 435.864 17.955C435.864 18.4402 435.671 18.9056 435.328 19.2487C434.985 19.5918 434.519 19.7846 434.034 19.7846Z" fill="#8F90A6"/>
<path d="M341.46 13.0329C339.841 11.9092 338.017 11.451 336.077 11.4251C333.703 11.3943 331.326 11.4251 328.953 11.4251C328.394 11.4251 328.292 11.5255 328.292 12.0728V19.8447C328.292 22.445 328.292 25.0454 328.292 27.6457C328.292 28.1493 328.42 28.2739 328.92 28.2739C331.223 28.2739 333.525 28.2739 335.826 28.2739C336.715 28.2773 337.602 28.1735 338.467 27.9647C341.124 27.3057 343.109 25.8274 344.153 23.24C344.773 21.7051 344.888 20.0972 344.674 18.4716C344.377 16.2081 343.358 14.3541 341.46 13.0329ZM338.472 22.7478C337.725 23.4877 336.796 23.7857 335.771 23.8164C335.029 23.8391 334.286 23.8164 333.543 23.8164C333.366 23.8164 333.311 23.7678 333.311 23.5881C333.318 21.0817 333.318 18.5753 333.311 16.0688C333.311 15.9069 333.358 15.8551 333.523 15.8583C333.953 15.8697 334.382 15.8583 334.811 15.8583C335.543 15.8583 336.276 15.8243 336.993 16.0202C338.549 16.4266 339.514 17.62 339.649 19.312C339.754 20.6267 339.43 21.7957 338.472 22.7462V22.7478Z" fill="#8F90A6"/>
<path d="M378.02 15.9149C376.169 15.4712 374.524 15.9149 373.124 17.2102C372.915 17.4045 372.735 17.6279 372.533 17.8481C372.107 16.7617 371.341 16.0913 370.217 15.8744C368.302 15.5068 366.624 16.0039 365.177 17.3316C365.164 17.3122 365.154 17.3057 365.154 17.2976C365.154 17.0677 365.154 16.8378 365.154 16.6078C365.154 16.2031 365.008 16.0557 364.61 16.0541C363.481 16.0541 362.351 16.0541 361.221 16.0541C360.82 16.0541 360.672 16.195 360.672 16.603C360.672 20.3108 360.672 24.0181 360.672 27.7249C360.672 28.1281 360.821 28.2657 361.229 28.2657H364.524C365.031 28.2657 365.154 28.1442 365.154 27.6423C365.154 25.4295 365.154 23.2167 365.154 21.0038C365.154 20.8824 365.127 20.7593 365.225 20.6492C365.572 20.2574 365.969 19.9303 366.495 19.8397C367.542 19.6486 368.326 20.0307 368.31 21.2969C368.284 23.4277 368.31 25.5585 368.31 27.6893C368.31 28.154 368.438 28.2786 368.907 28.2786H372.172C372.665 28.2786 372.779 28.1653 372.779 27.6731V21.0346C372.768 20.9629 372.773 20.8898 372.791 20.8199C372.81 20.75 372.844 20.6847 372.889 20.6282C373.157 20.3196 373.495 20.0793 373.875 19.9271C375.102 19.4721 375.968 20.0631 375.98 21.36V27.7508C375.98 28.1297 376.114 28.2803 376.465 28.2819C377.627 28.2819 378.788 28.2819 379.95 28.2819C380.274 28.2819 380.436 28.12 380.436 27.7961C380.436 24.893 380.452 21.9899 380.436 19.0868C380.398 17.4547 379.506 16.2727 378.02 15.9149Z" fill="#8F90A6"/>
<path d="M321.363 5.32894L315.83 -0.307299C315.736 -0.410377 315.62 -0.491487 315.49 -0.544918C315.361 -0.598349 315.222 -0.622802 315.082 -0.616556C314.659 -0.64732 314.4 -0.352634 314.128 -0.0741416L309.919 4.22307C308.529 5.64144 307.139 7.05873 305.746 8.47494C305.618 8.60285 305.584 8.67409 305.735 8.81982C308.812 11.9502 311.885 15.0805 314.954 18.2109C315.168 18.4294 315.249 18.3048 315.385 18.1655C318.208 15.2834 321.03 12.4035 323.853 9.52576C324.381 8.98659 324.378 8.39236 323.842 7.8548C323.013 7.01771 322.19 6.16928 321.363 5.32894ZM315.1 11.0672C314.465 11.0616 313.858 10.804 313.413 10.3509C312.968 9.89787 312.721 9.28655 312.726 8.65143C312.732 8.01631 312.989 7.40942 313.442 6.96427C313.895 6.51913 314.507 6.27218 315.142 6.27776C315.456 6.28052 315.767 6.34521 316.057 6.46811C316.346 6.591 316.609 6.76972 316.829 6.99404C317.05 7.21836 317.224 7.48391 317.341 7.77551C317.459 8.06711 317.518 8.37905 317.516 8.69353C317.513 9.00801 317.448 9.31886 317.325 9.60834C317.202 9.89782 317.024 10.1603 316.799 10.3807C316.575 10.6011 316.309 10.7752 316.018 10.893C315.726 11.0108 315.414 11.07 315.1 11.0672Z" fill="#8F90A6"/>
<path d="M314.4 18.7986C314.188 18.5994 313.992 18.3792 313.788 18.1704C310.938 15.271 308.09 12.3695 305.242 9.46584C305.059 9.27802 304.965 9.2505 304.756 9.45613C302.943 11.3214 301.115 13.1802 299.292 15.0325C298.275 16.0687 297.253 17.1017 296.243 18.1461C295.757 18.6431 295.773 19.226 296.251 19.7264C296.468 19.953 296.695 20.1684 296.915 20.3934C299.377 22.9096 301.841 25.4263 304.306 27.9435C304.405 28.0456 304.524 28.1261 304.656 28.1802C304.787 28.2342 304.928 28.2606 305.071 28.2576C305.216 28.25 305.358 28.2136 305.49 28.1505C305.621 28.0874 305.738 27.9989 305.835 27.8901C307.168 26.5311 308.502 25.1737 309.836 23.8179C311.36 22.2668 312.885 20.7173 314.411 19.1694C314.567 19.0123 314.541 18.933 314.4 18.7986ZM301.576 21.2759C301.104 21.2829 300.641 21.1496 300.244 20.893C299.848 20.6363 299.537 20.2677 299.35 19.834C299.164 19.4003 299.11 18.921 299.196 18.4567C299.282 17.9924 299.504 17.5641 299.833 17.2261C300.163 16.888 300.586 16.6554 301.048 16.5577C301.51 16.4601 301.99 16.5017 302.428 16.6774C302.867 16.8531 303.243 17.1549 303.51 17.5446C303.776 17.9344 303.921 18.3944 303.926 18.8666C303.936 19.1807 303.882 19.4936 303.768 19.7866C303.654 20.0796 303.483 20.3466 303.264 20.5718C303.044 20.797 302.782 20.9756 302.492 21.0972C302.202 21.2187 301.891 21.2806 301.576 21.2791V21.2759ZM308.482 21.3892C307.861 21.3756 307.269 21.1184 306.835 20.6728C306.402 20.2273 306.16 19.6292 306.164 19.0075C306.173 18.5471 306.318 18.0998 306.581 17.7217C306.844 17.3436 307.212 17.0517 307.641 16.8827C308.069 16.7137 308.538 16.675 308.988 16.7717C309.438 16.8683 309.85 17.0959 310.171 17.4258C310.492 17.7558 310.708 18.1733 310.793 18.6259C310.878 19.0786 310.826 19.5461 310.646 19.9697C310.465 20.3933 310.164 20.754 309.779 21.0066C309.394 21.2592 308.943 21.3923 308.482 21.3892Z" fill="#8F90A6"/>
<path d="M402.2 19.1547C402.14 17.487 401.092 16.2176 399.467 15.8938C397.477 15.4971 395.67 15.8938 394.123 17.4012C394.123 17.0968 394.123 16.8507 394.123 16.6046C394.123 16.1852 393.999 16.0573 393.588 16.0573C392.467 16.0573 391.347 16.0573 390.228 16.0573C389.804 16.0573 389.656 16.1982 389.656 16.6127C389.656 20.3097 389.656 24.0068 389.656 27.7038C389.656 28.1248 389.8 28.2689 390.218 28.2689H393.545C394 28.2689 394.123 28.1475 394.123 27.6989C394.123 25.5584 394.14 23.4179 394.112 21.2774C394.096 21.077 394.134 20.8758 394.224 20.6957C394.313 20.5156 394.451 20.3635 394.621 20.2557C394.713 20.1872 394.808 20.1235 394.907 20.0647C396.364 19.2341 397.75 20.0194 397.75 21.6838V27.6374C397.75 28.1637 397.862 28.2721 398.398 28.2721H401.664C402.091 28.2721 402.219 28.1442 402.219 27.7103C402.219 26.1235 402.219 24.5362 402.219 22.9484C402.218 21.6822 402.247 20.4177 402.2 19.1547Z" fill="#8F90A6"/>
<path d="M352.761 15.7029C349.28 15.541 346.285 18.3032 346.162 21.9123C346.047 25.2753 348.496 28.3014 352.05 28.5783C355.519 28.8471 358.58 26.1253 358.797 22.5616C359.019 18.9039 356.289 15.8664 352.761 15.7029ZM354.628 22.1212C354.562 23.3728 353.585 24.2892 352.377 24.2261C351.945 24.2126 351.527 24.0712 351.175 23.8197C350.823 23.5682 350.554 23.2179 350.401 22.8133C350.249 22.4086 350.22 21.9678 350.318 21.5466C350.416 21.1255 350.637 20.743 350.953 20.4476C351.269 20.1522 351.666 19.9572 352.092 19.8874C352.519 19.8175 352.957 19.8758 353.351 20.0551C353.744 20.2343 354.076 20.5263 354.303 20.8941C354.53 21.2619 354.644 21.689 354.628 22.1212Z" fill="#8F90A6"/>
<path d="M409.648 15.766C406.429 16.1529 404.083 18.878 404.083 22.2134C404.073 22.7661 404.143 23.3172 404.289 23.8504C405.098 27.0482 408.382 29.1514 411.55 28.5005C412.436 28.3242 413.275 27.9635 414.013 27.4419C414.75 26.9203 415.37 26.2494 415.831 25.4729C416.293 24.6963 416.586 23.8314 416.691 22.9343C416.796 22.0372 416.712 21.128 416.443 20.2656C415.579 17.4029 412.857 15.3806 409.648 15.766ZM410.394 24.2665C409.823 24.2525 409.279 24.016 408.88 23.6075C408.48 23.1989 408.256 22.6505 408.254 22.0789C408.253 21.5073 408.474 20.9577 408.872 20.547C409.269 20.1364 409.812 19.8971 410.383 19.8802C410.954 19.8942 411.498 20.1306 411.898 20.5392C412.297 20.9478 412.522 21.4962 412.523 22.0678C412.525 22.6394 412.303 23.189 411.905 23.5997C411.508 24.0103 410.966 24.2495 410.394 24.2665Z" fill="#8F90A6"/>
<path d="M429.507 21.1042C428.631 20.6767 427.683 20.5197 426.731 20.3804C426.101 20.2881 425.46 20.2574 424.851 20.0469C424.69 19.9886 424.516 19.9076 424.505 19.689C424.502 19.5942 424.529 19.5008 424.581 19.4215C424.633 19.3422 424.708 19.2807 424.796 19.2454C425.048 19.1199 425.325 19.0544 425.606 19.0543C426.776 18.9962 427.93 19.3389 428.878 20.0258C429.192 20.2412 429.414 20.1877 429.602 19.8542C429.984 19.1839 430.362 18.5119 430.735 17.8384C430.915 17.5145 430.86 17.3202 430.551 17.1292C429.25 16.3178 427.761 15.8581 426.229 15.795C424.923 15.7335 423.639 15.8161 422.421 16.3617C421.087 16.9624 420.253 17.9388 420.216 19.4608C420.175 21.0702 420.899 22.2133 422.364 22.8885C423.286 23.3127 424.275 23.4811 425.266 23.6414C425.873 23.7401 426.49 23.8033 427.07 24.0219C427.308 24.1142 427.546 24.2405 427.528 24.5481C427.51 24.8557 427.264 24.9335 427.042 25.0128C426.612 25.1504 426.159 25.2022 425.71 25.165C424.414 25.0954 423.261 24.5934 422.159 23.9523C421.77 23.7256 421.594 23.7628 421.365 24.1482C420.944 24.8563 420.526 25.566 420.109 26.2773C419.876 26.6757 419.913 26.8619 420.305 27.1047C421.751 27.982 423.394 28.483 425.083 28.562C426.378 28.5879 427.36 28.5037 428.31 28.2187C430.198 27.652 431.26 26.4376 431.43 24.6566C431.59 23.0342 430.917 21.7939 429.507 21.1042Z" fill="#8F90A6"/>
<path d="M386.677 16.0573C385.59 16.0573 384.503 16.0573 383.415 16.0573C382.877 16.0573 382.751 16.182 382.751 16.7179V27.5209C382.751 28.1685 382.845 28.2705 383.484 28.2705H386.687C387.102 28.2705 387.254 28.1216 387.255 27.7054C387.255 24.0084 387.255 20.313 387.255 16.6192C387.251 16.2079 387.095 16.0573 386.677 16.0573Z" fill="#8F90A6"/>
<path d="M417.836 10.1605C417.196 10.2598 416.619 10.6064 416.232 11.126C415.844 11.6455 415.675 12.2964 415.762 12.9389C415.914 13.9331 416.658 14.6568 417.768 14.8463C418.024 14.89 417.993 14.9758 417.917 15.1458C417.783 15.4422 417.563 15.6922 417.287 15.8647C417.249 15.882 417.215 15.9078 417.187 15.94C417.16 15.9723 417.141 16.0103 417.13 16.0512C417.119 16.0921 417.118 16.1348 417.126 16.1762C417.135 16.2177 417.152 16.2567 417.177 16.2905C417.605 16.9512 417.522 16.9835 418.197 16.65L418.282 16.6095C419.8 15.7821 420.72 14.5613 420.807 13.0944C420.815 11.1287 419.449 9.92083 417.836 10.1605Z" fill="#8F90A6"/>
<path d="M385.118 10.0681C384.61 10.0584 384.11 10.2003 383.683 10.4756C383.255 10.7509 382.92 11.1471 382.719 11.6138C382.517 12.0806 382.459 12.5966 382.553 13.0963C382.646 13.596 382.885 14.0567 383.241 14.4196C383.597 14.7825 384.053 15.0313 384.551 15.1343C385.048 15.2372 385.565 15.1897 386.036 14.9977C386.507 14.8057 386.91 14.478 387.193 14.0562C387.477 13.6345 387.629 13.1378 387.629 12.6296C387.633 12.2964 387.571 11.9658 387.446 11.6566C387.322 11.3475 387.138 11.0659 386.905 10.828C386.671 10.5901 386.393 10.4005 386.087 10.2701C385.78 10.1397 385.451 10.071 385.118 10.0681Z" fill="#8F90A6"/>
<path d="M315.742 25.374C315.5 25.4015 315.168 25.1667 315.024 25.5828C314.862 26.0232 314.692 26.4572 314.504 26.9462C314.35 26.5381 314.214 26.1803 314.078 25.8225C313.895 25.3367 313.895 25.3529 313.369 25.3578C313.178 25.3578 313.115 25.4144 313.118 25.6071C313.128 26.3066 313.132 27.0061 313.118 27.712C313.118 27.9662 313.238 27.9597 313.424 27.9711C313.649 27.984 313.678 27.8836 313.675 27.6958C313.663 27.2263 313.675 26.7567 313.675 26.2872C313.906 26.7561 314.113 27.2366 314.295 27.7266C314.334 27.8237 314.334 27.9597 314.497 27.9662C314.661 27.9727 314.682 27.8254 314.724 27.7169C314.913 27.2311 315.096 26.7551 315.281 26.2726C315.323 26.7517 315.336 27.2329 315.32 27.7136C315.32 27.9306 315.399 27.9759 315.595 27.9695C315.791 27.963 315.909 27.9695 315.903 27.7152C315.885 27.0465 315.903 26.3795 315.891 25.7107C315.885 25.5828 315.989 25.3464 315.742 25.374Z" fill="#8F90A6"/>
<path d="M312.593 25.3561C312.07 25.3707 311.547 25.3674 311.026 25.3561C310.837 25.3561 310.773 25.4079 310.773 25.6022C310.773 25.7965 310.824 25.8969 311.034 25.871C311.117 25.8597 311.196 25.871 311.285 25.871C311.463 25.8516 311.525 25.926 311.517 26.1025C311.504 26.3729 311.517 26.6449 311.517 26.9121C311.517 27.1793 311.528 27.4756 311.517 27.7573C311.504 28.005 311.679 27.9484 311.808 27.9532C311.938 27.9581 312.098 27.984 312.09 27.746C312.075 27.2975 312.09 26.849 312.09 26.3988C312.09 25.8937 312.09 25.884 312.606 25.8726C312.796 25.8726 312.831 25.7917 312.828 25.6265C312.825 25.4614 312.817 25.3513 312.593 25.3561Z" fill="#8F90A6"/>
<path d="M434.987 17.2652C434.902 16.9122 434.589 16.713 434.113 16.7114C433.883 16.7114 433.652 16.7114 433.422 16.7114C433.278 16.7114 433.219 16.7535 433.219 16.9073C433.219 17.6068 433.219 18.3063 433.219 19.0122C433.219 19.1223 433.219 19.2162 433.381 19.2146C433.543 19.213 433.596 19.179 433.587 19.0219C433.577 18.8553 433.577 18.6883 433.587 18.5216C433.595 18.4212 433.517 18.2674 433.694 18.2399C433.835 18.2188 433.979 18.2075 434.073 18.3759C434.181 18.5767 434.332 18.7564 434.438 18.9588C434.565 19.2017 434.736 19.2729 435.018 19.1677L434.421 18.2431C434.908 18.0051 435.089 17.6878 434.987 17.2652ZM433.946 17.8934C433.548 17.9274 433.553 17.7185 433.582 17.5113C433.582 16.9802 433.527 17.0353 434 17.0255C434.434 17.0255 434.631 17.1567 434.638 17.4498C434.644 17.7428 434.437 17.8529 433.946 17.8934Z" fill="#8F90A6"/>
<g clip-path="url(#clip2_1_90147)">
<path d="M570.432 12.7382H567.424C566.699 12.7382 566.144 12.9293 565.57 13.6245C564.995 14.3197 561.321 18.7602 561.321 18.7602V12.7382H557.146V28.1283C557.147 28.3598 557.236 28.5816 557.392 28.7454C557.548 28.9091 557.759 29.0015 557.98 29.0026H561.317V21.626L564.997 27.6573C565.546 28.5581 566.09 29.0026 567.341 29.0026H570.768L564.916 19.4064L570.432 12.7382Z" fill="#8F90A6"/>
<path d="M552.786 12.7382H543.496V27.5458C543.496 28.3565 544.255 29.0052 545.062 29.0052H552.786C553.007 29.0045 553.219 28.9121 553.375 28.748C553.532 28.5839 553.62 28.3616 553.621 28.1296V26.0267H548.291C548.125 26.025 547.966 25.9543 547.848 25.8301C547.731 25.7059 547.665 25.5382 547.665 25.3634V21.9417H552.415V18.9712H547.665V15.7167H553.621V13.6205C553.62 13.3885 553.532 13.1662 553.375 13.0021C553.219 12.838 553.007 12.7456 552.786 12.7449" fill="#8F90A6"/>
<path d="M582.134 12.7382H572.843V27.5458C572.843 28.3565 573.602 29.0052 574.409 29.0052H582.134C582.355 29.0045 582.567 28.912 582.723 28.7479C582.879 28.5838 582.967 28.3615 582.968 28.1296V26.0267H577.639C577.472 26.0246 577.313 25.9538 577.196 25.8297C577.079 25.7055 577.014 25.5379 577.014 25.3634V21.9417H581.763V18.9712H577.014V15.7167H582.968V13.6205C582.967 13.3886 582.879 13.1663 582.723 13.0022C582.567 12.8381 582.355 12.7456 582.134 12.7449" fill="#8F90A6"/>
<path d="M523.006 12.7382H518.832V28.1283C518.833 28.36 518.922 28.5817 519.078 28.7454C519.234 28.9091 519.446 29.0015 519.667 29.0026H523.004L523.006 12.7382Z" fill="#8F90A6"/>
<path d="M514.203 12.7382H504.911V27.5458C504.911 28.391 505.676 29.0052 506.478 29.0052H514.203C514.424 29.0042 514.636 28.9116 514.792 28.7475C514.948 28.5835 515.036 28.3614 515.037 28.1296V26.0267H509.705C509.539 26.0246 509.38 25.9538 509.263 25.8297C509.146 25.7055 509.08 25.5379 509.08 25.3634V21.9417H513.829V18.9712H509.083V15.7167H515.037V13.6205C515.036 13.3887 514.948 13.1666 514.792 13.0026C514.636 12.8385 514.424 12.7459 514.203 12.7449" fill="#8F90A6"/>
<path d="M500.699 12.7382H496.524V18.9738H492.881V12.7382H488.041V13.3777C488.243 13.469 488.414 13.6216 488.533 13.8159C488.652 14.0103 488.712 14.2375 488.707 14.4683V28.9999H492.881V21.9444H496.529V28.9999H500.704L500.699 12.7382Z" fill="#8F90A6"/>
<path d="M539.283 12.7382V28.1283C539.282 28.3598 539.194 28.5816 539.038 28.7454C538.882 28.9091 538.67 29.0015 538.449 29.0026H535.889L530.258 19.6823C530.335 20.2599 530.374 20.8424 530.374 21.4256V29.0026H527.257V12.7382H529.281C530.313 12.7382 531.065 13.1853 531.605 14.0769C532.064 14.8331 536.322 21.8608 536.322 21.8608C536.322 21.8608 536.169 21.3819 536.169 20.0989V12.7382H539.283Z" fill="#8F90A6"/>
<path d="M599.184 12.7382V13.3777C598.985 13.4725 598.816 13.6261 598.699 13.8197C598.581 14.0134 598.52 14.2388 598.523 14.4683V28.1256C598.523 28.3568 598.435 28.5786 598.28 28.7425C598.124 28.9063 597.913 28.9989 597.693 28.9999H595.137L589.504 19.6797C589.581 20.2572 589.62 20.8397 589.62 21.423V28.9999H586.503V12.7382H588.527C589.558 12.7382 590.311 13.1853 590.851 14.0769C591.31 14.8331 595.567 21.8608 595.567 21.8608C595.567 21.8608 595.415 21.3819 595.415 20.0989V12.7382H599.184Z" fill="#8F90A6"/>
<path d="M480.27 18.6595C480.227 18.7005 480.172 18.7248 480.114 18.7284C480.056 18.732 479.999 18.7146 479.952 18.6791C479.905 18.6437 479.871 18.5924 479.855 18.5337C479.84 18.4751 479.844 18.4127 479.868 18.357C479.981 17.9961 482.077 11.2232 482.077 11.2232L476.294 6.81579C476.244 6.78535 476.205 6.73779 476.185 6.68105C476.164 6.62432 476.162 6.56185 476.18 6.50408C476.198 6.4463 476.235 6.39673 476.283 6.36363C476.332 6.33054 476.39 6.31593 476.447 6.32224H483.595C483.595 6.32224 485.694 -0.444075 485.804 -0.807599C485.816 -0.867582 485.847 -0.921511 485.892 -0.960246C485.937 -0.998981 485.993 -1.02014 486.052 -1.02014C486.11 -1.02014 486.167 -0.998981 486.212 -0.960246C486.257 -0.921511 486.288 -0.867582 486.3 -0.807599C486.411 -0.445402 488.51 6.32092 488.51 6.32092C488.51 6.32092 495.293 6.32092 495.656 6.32092C495.714 6.3146 495.772 6.32921 495.821 6.36231C495.869 6.3954 495.905 6.44498 495.923 6.50275C495.941 6.56052 495.94 6.62299 495.919 6.67973C495.898 6.73646 495.86 6.78402 495.809 6.81446L492.36 9.44536H488.279L487.014 5.37629L485.75 9.44536H481.676L484.979 11.9662L483.714 16.0352L480.27 18.6595Z" fill="#8F90A6"/>
</g>
<path fill-rule="evenodd" clip-rule="evenodd" d="M656.729 24.9519C654.766 23.7225 653.32 19.4803 653.32 14.4388C653.32 14.2537 653.32 14.0717 653.325 13.8887C647.865 13.0304 643.921 10.6805 643.819 7.90049L643.803 7.93303C642.468 9.59251 641.705 11.5123 641.705 13.5572C641.705 19.5748 648.315 24.5065 656.69 24.9458L656.726 24.9529L656.729 24.9519ZM639.185 13.9995C639.185 7.26599 647.564 1.80658 657.902 1.80658C668.239 1.80658 676.619 7.26599 676.619 13.9995C676.619 20.733 668.239 26.1934 657.902 26.1934C647.564 26.1934 639.185 20.733 639.185 13.9995ZM657.902 3.56571C659.898 3.56571 661.595 6.59284 662.224 10.8168V10.8107C666.106 10.2006 668.824 8.81158 668.824 7.18972C668.824 5.01267 663.933 3.24947 657.899 3.24947C651.866 3.24947 646.975 5.01267 646.975 7.18972C646.975 8.81158 649.693 10.2057 653.576 10.8107V10.8168C654.205 6.59284 655.902 3.56571 657.897 3.56571H657.902ZM659.11 24.9447C667.489 24.5095 674.096 19.5779 674.096 13.5562C674.096 11.5113 673.333 9.59048 671.997 7.93202L671.981 7.89948C671.879 10.6795 667.936 13.0294 662.476 13.8876C662.476 14.0707 662.482 14.2527 662.482 14.4378C662.482 19.4792 661.035 23.7215 659.074 24.9509L659.107 24.9437L659.11 24.9447ZM657.902 11.131C658.796 11.131 659.665 11.0924 660.496 11.0191C660.083 8.31232 659.073 6.40066 657.903 6.40066C656.732 6.40066 655.723 8.31232 655.309 11.0191C656.14 11.0924 657.01 11.131 657.904 11.131H657.902ZM657.902 21.158C659.404 21.158 660.63 18.0313 660.695 14.1093H660.703C659.798 14.1927 658.86 14.2364 657.902 14.2364C656.943 14.2364 656.006 14.1927 655.1 14.1093H655.108C655.173 18.0313 656.4 21.158 657.902 21.158Z" fill="#8F90A6"/>
<path fill-rule="evenodd" clip-rule="evenodd" d="M734.693 13.9993C734.693 12.1558 735.24 10.3537 736.264 8.82079C737.288 7.28792 738.743 6.09315 740.446 5.38759C742.15 4.68202 744.024 4.49736 745.832 4.85696C747.64 5.21655 749.301 6.10425 750.604 7.40779C751.908 8.71132 752.795 10.3721 753.155 12.1802C753.515 13.9883 753.33 15.8624 752.624 17.5655C751.919 19.2686 750.724 20.7242 749.191 21.7483C747.658 22.7723 745.856 23.3188 744.013 23.3186C741.541 23.3186 739.171 22.3368 737.423 20.589C735.675 18.8413 734.693 16.4709 734.693 13.9993ZM744.013 19.897C746.887 19.897 749.217 17.2532 749.217 13.9993C749.217 10.7454 746.887 8.10162 744.013 8.10162C741.138 8.10162 738.811 10.7454 738.811 13.9993C738.811 17.2532 741.139 19.897 744.013 19.897Z" fill="#8F90A6"/>
<path fill-rule="evenodd" clip-rule="evenodd" d="M763.907 8.56216V22.8955H759.981V8.56216H759.994H754.502V5.32251H769.385V8.56216H763.92H763.907Z" fill="#8F90A6"/>
<path fill-rule="evenodd" clip-rule="evenodd" d="M774.135 18.9413L772.629 22.8917H768.043L775.294 5.31866H780.18L787.431 22.8917H782.845L781.338 18.9413H774.135ZM777.734 15.9751H780.203L777.75 9.54261H777.716L775.263 15.9741H777.734V15.9751Z" fill="#8F90A6"/>
<path fill-rule="evenodd" clip-rule="evenodd" d="M691.525 8.56216V22.8955H687.598V8.56216H687.613H682.121V5.32251H697.003V8.56216H691.54H691.525Z" fill="#8F90A6"/>
<path fill-rule="evenodd" clip-rule="evenodd" d="M698.005 13.9993C698.005 12.1559 698.551 10.3538 699.575 8.8209C700.599 7.28804 702.055 6.09328 703.758 5.38768C705.461 4.68209 707.335 4.49737 709.143 4.85688C710.951 5.2164 712.612 6.104 713.915 7.40743C715.219 8.71086 716.107 10.3716 716.466 12.1796C716.826 13.9876 716.642 15.8616 715.936 17.5648C715.231 19.2679 714.036 20.7236 712.503 21.7478C710.971 22.772 709.169 23.3186 707.325 23.3186C706.101 23.3187 704.889 23.0778 703.759 22.6095C702.628 22.1412 701.6 21.4548 700.735 20.5894C699.869 19.724 699.183 18.6966 698.714 17.5659C698.246 16.4351 698.005 15.2232 698.005 13.9993ZM707.325 19.897C710.199 19.897 712.529 17.2532 712.529 13.9993C712.529 10.7454 710.199 8.10162 707.325 8.10162C704.452 8.10162 702.121 10.7454 702.121 13.9993C702.121 17.2532 704.452 19.897 707.325 19.897Z" fill="#8F90A6"/>
<path fill-rule="evenodd" clip-rule="evenodd" d="M725.671 22.8955H727.661V16.3054V16.223L734.512 5.32251H729.927L725.671 12.7088L721.415 5.32251H716.829L723.68 16.223V16.3054V22.8955H725.671Z" fill="#8F90A6"/>
<path d="M838.347 -2.03541C837.932 -1.25557 832.346 9.26932 829.939 13.7913C829.856 13.9477 829.862 14.0608 829.944 14.2139C832.302 18.6448 837.08 27.6333 837.129 27.7173C837.179 27.6339 841.957 18.6448 844.314 14.2145C844.396 14.0614 844.403 13.9483 844.319 13.792C842.97 11.2651 841.63 8.73306 840.28 6.20618C840.194 6.04466 840.188 5.92384 840.278 5.76102C840.649 5.08779 841.004 4.40616 841.38 3.69933C841.433 3.79043 845.009 10.5118 846.762 13.8049C846.836 13.9432 846.842 14.0466 846.766 14.1893C843.992 19.404 841.222 24.6212 838.455 29.8404C838.381 29.9799 838.306 30.0432 838.138 30.0406C837.453 30.029 836.767 30.0322 836.082 30.0387C835.955 30.04 835.887 29.9993 835.827 29.8856C833.046 24.6406 830.263 19.3969 827.476 14.1551C827.418 14.0459 827.413 13.9645 827.473 13.8514C830.26 8.60837 833.043 3.36466 835.831 -1.87711C835.866 -1.94302 835.949 -2.02765 836.01 -2.0283C836.775 -2.03928 837.54 -2.03541 838.347 -2.03541Z" fill="#8F90A6"/>
<path d="M841.516 1.17563C840.241 3.56941 836.725 10.1828 834.809 13.7848C834.727 13.9386 834.721 14.0517 834.805 14.2074C836.154 16.7349 837.494 19.2663 838.843 21.7932C838.93 21.9553 838.934 22.0755 838.845 22.2383C838.474 22.9116 838.118 23.5932 837.742 24.3007C837.692 24.2154 834.117 17.4934 832.36 14.1938C832.286 14.0555 832.28 13.9522 832.356 13.8094C835.13 8.59539 837.9 3.37817 840.667 -1.84099C840.742 -1.98119 840.817 -2.04322 840.984 -2.04063C841.669 -2.029 842.355 -2.03223 843.04 -2.03869C843.168 -2.03999 843.234 -1.99799 843.294 -1.88492C846.076 3.36008 848.86 8.60379 851.647 13.8456C851.705 13.9547 851.709 14.0368 851.649 14.1492C848.862 19.391 846.079 24.6347 843.292 29.8765C843.256 29.9424 843.174 30.0264 843.112 30.027C842.347 30.0374 841.583 30.0335 840.781 30.0335C840.834 29.9301 846.423 19.3955 849.184 14.2067C849.267 14.0504 849.261 13.9373 849.179 13.7842C846.821 9.35326 842.043 0.364779 841.993 0.281433C841.984 0.29694 841.809 0.62451 841.516 1.17563Z" fill="#8F90A6"/>
<path d="M861.093 20.8122H858.476V9.36037C858.476 9.21453 858.46 9.11973 858.427 9.07306C858.393 9.02639 858.312 8.9768 858.18 8.92429L857.472 8.64719L857.688 7.49792H864.297C866.002 7.49792 867.229 7.82462 867.976 8.47801C868.723 9.13139 869.097 10.1859 869.097 11.6385C869.097 12.7877 868.864 13.673 868.399 14.2929C867.932 14.9142 867.208 15.3167 866.225 15.5019L869.451 20.8122H866.561L863.63 15.7994H861.093V20.8122ZM861.093 13.8189H864.003C864.909 13.8189 865.554 13.6541 865.941 13.323C866.328 12.9934 866.522 12.4319 866.522 11.6385C866.522 10.8597 866.328 10.304 865.941 9.97438C865.554 9.64477 864.909 9.47851 864.003 9.47851H861.093V13.8189Z" fill="#8F90A6"/>
<path d="M881.237 7.49933V9.52075H874.311V13.0677H879.82V15.0089H874.311V18.7936H881.393V20.815H871.696V9.36324C871.696 9.21739 871.68 9.12259 871.647 9.07592C871.613 9.02925 871.532 8.97966 871.401 8.92716L870.692 8.65005L870.908 7.50079H881.237V7.49933Z" fill="#8F90A6"/>
<path d="M883.559 9.36037C883.559 9.21453 883.543 9.11973 883.51 9.07306C883.476 9.02639 883.395 8.9768 883.263 8.92429L882.555 8.64719L882.771 7.49792H885.722C885.919 7.49792 886.047 7.52126 886.106 7.56793C886.165 7.6146 886.273 7.74295 886.431 7.95442L893.218 17.2069V7.49938H895.638V20.8122H893.101L885.98 11.1047V20.8122H883.56V9.36037H883.559Z" fill="#8F90A6"/>
<path d="M904.981 7.49933C905.243 7.97479 905.526 8.5465 905.827 9.21301C906.128 9.87953 906.44 10.6029 906.761 11.3817C907.083 12.162 907.4 12.9729 907.715 13.8188C908.03 14.6647 908.328 15.5033 908.61 16.3346C908.893 17.166 909.152 17.9667 909.388 18.7323C909.624 19.498 909.821 20.1923 909.977 20.8121H907.342C907.197 20.271 907.046 19.7416 906.89 19.2268C906.732 18.7119 906.581 18.2029 906.437 17.7012H900.614C900.456 18.2029 900.302 18.7119 900.152 19.2268C900.001 19.7416 899.853 20.271 899.708 20.8121H897.073C897.231 20.1908 897.428 19.498 897.664 18.7323C897.9 17.9667 898.159 17.1674 898.441 16.3346C898.724 15.5019 899.022 14.6633 899.336 13.8188C899.651 12.9744 899.969 12.162 900.291 11.3817C900.612 10.6029 900.923 9.87953 901.225 9.21301C901.526 8.5465 901.808 7.97479 902.07 7.49933H904.981ZM903.524 9.83577C902.684 11.7376 901.924 13.7123 901.242 15.76H905.807C905.099 13.7123 904.338 11.7391 903.524 9.83577Z" fill="#8F90A6"/>
<path d="M911.295 9.36038C911.295 9.21453 911.278 9.11973 911.246 9.07306C911.213 9.02639 911.131 8.9768 911 8.92429L910.292 8.64719L910.507 7.49792H913.734C913.851 7.49792 913.91 7.56356 913.91 7.69628V15.4028C913.91 16.6701 914.18 17.5817 914.717 18.1374C915.254 18.6916 916.126 18.9687 917.334 18.9687C918.553 18.9687 919.43 18.6916 919.961 18.1374C920.492 17.5831 920.757 16.6716 920.757 15.4028V7.49792H923.374V15.6011C923.374 16.5651 923.26 17.3906 923.03 18.0776C922.801 18.7645 922.443 19.3289 921.958 19.7708C921.473 20.2127 920.846 20.5365 920.08 20.7422C919.312 20.9463 918.398 21.0484 917.335 21.0484C916.272 21.0484 915.359 20.9463 914.591 20.7422C913.824 20.538 913.198 20.2142 912.713 19.7708C912.228 19.3289 911.87 18.7645 911.641 18.0776C911.411 17.3906 911.297 16.5651 911.297 15.6011V9.36038H911.295Z" fill="#8F90A6"/>
<path d="M926.404 9.36037C926.404 9.21453 926.388 9.11973 926.355 9.07306C926.321 9.02639 926.24 8.9768 926.109 8.92429L925.4 8.64719L925.616 7.49792H928.843C928.96 7.49792 929.019 7.56356 929.019 7.69628V18.7907H935.058V20.8122H926.403V9.36037H926.404Z" fill="#8F90A6"/>
<path d="M937.893 9.51935H933.603V7.49792H944.797V9.51935H940.509V20.8122H937.893V9.51935Z" fill="#8F90A6"/>
<path d="M1045.92 4C1034.23 4.00265 1031.26 10.2732 1030.79 14.5305C1030.24 19.3103 1033.73 24 1042.31 24C1045.92 24 1048.28 23.4032 1049.12 23.1512C1049.22 23.1201 1049.32 23.0628 1049.39 22.9852C1049.46 22.9076 1049.51 22.8128 1049.53 22.7109L1050.01 20.2971C1050.03 20.2141 1050.02 20.1285 1049.99 20.0486C1049.97 19.9686 1049.92 19.8971 1049.85 19.841C1049.78 19.7848 1049.7 19.746 1049.62 19.7283C1049.53 19.7107 1049.44 19.7147 1049.35 19.7401C1048.42 20.0212 1046.76 20.4085 1044.65 20.4085C1040.55 20.4085 1037.59 18.069 1037.96 14.0424C1038.33 10.1432 1041.09 7.17241 1044.9 7.17241C1047.19 7.17241 1048.2 8.313 1048.13 9.83289V9.92042C1048.12 9.98605 1048.13 10.0517 1048.16 10.1133C1048.18 10.1749 1048.22 10.2314 1048.27 10.2792C1048.31 10.327 1048.37 10.3652 1048.43 10.3915C1048.5 10.4178 1048.57 10.4317 1048.64 10.4324H1050.19C1050.43 10.4324 1050.64 10.2732 1050.69 10.0531L1051.78 5.38462C1051.82 5.24237 1051.79 5.09294 1051.71 4.96711C1051.64 4.84127 1051.51 4.74861 1051.36 4.70822C1049.59 4.23772 1047.76 4.00032 1045.92 4.00265L1045.92 4ZM989.645 4.30769C989.518 4.30775 989.395 4.34875 989.296 4.42394C989.197 4.49914 989.128 4.60406 989.101 4.72149L988.799 6.00531C988.77 6.13161 988.791 6.2637 988.858 6.37627C988.925 6.48884 989.033 6.57398 989.162 6.61538L989.254 6.64191C989.835 6.85942 990.51 7.34748 990.226 8.626L988.015 18.2281C987.437 20.8462 986.501 21.3846 985.614 21.4801H985.586C985.468 21.4911 985.357 21.5373 985.269 21.6122C985.18 21.687 985.119 21.7866 985.094 21.8966L984.81 23.1273C984.793 23.2016 984.793 23.2785 984.812 23.3525C984.83 23.4264 984.865 23.4956 984.915 23.5548C984.965 23.6141 985.029 23.662 985.101 23.6949C985.173 23.7279 985.252 23.7451 985.332 23.7454H995.066C995.304 23.7454 995.51 23.5862 995.56 23.3687L995.895 21.9284C995.921 21.8154 995.904 21.6974 995.847 21.5954C995.789 21.4934 995.696 21.414 995.583 21.3714L995.521 21.3448C995.027 21.1591 994.354 20.7507 994.528 19.992L995.658 15.0849C999.536 21.809 1000.82 23.748 1005.47 23.7454H1009.67C1009.79 23.7455 1009.9 23.7082 1009.99 23.6397C1010.08 23.5712 1010.14 23.4756 1010.17 23.3687L1010.46 22.122C1010.48 22.0472 1010.48 21.9696 1010.46 21.8948C1010.44 21.8199 1010.41 21.7498 1010.36 21.6893C1010.31 21.6289 1010.24 21.5797 1010.17 21.5454C1010.1 21.511 1010.02 21.4924 1009.94 21.4907C1008.89 21.4748 1008.38 21.244 1007.33 19.9655L1001.94 13.0318L1008.94 7.49337C1009.88 6.7931 1011.03 6.59682 1011.67 6.51724L1011.73 6.51194C1011.84 6.50208 1011.94 6.45982 1012.02 6.3912C1012.1 6.32259 1012.16 6.23114 1012.18 6.12997L1012.47 4.89921C1012.49 4.82795 1012.49 4.75413 1012.47 4.68318C1012.45 4.61223 1012.42 4.54595 1012.37 4.48921C1012.32 4.43247 1012.26 4.38671 1012.19 4.3553C1012.12 4.32389 1012.05 4.30762 1011.97 4.30769H1003.54C1003.41 4.30834 1003.29 4.34933 1003.19 4.42398C1003.1 4.49864 1003.03 4.60256 1003 4.71884L1002.72 5.93899C1002.68 6.06992 1002.71 6.20701 1002.78 6.32266C1002.85 6.43831 1002.97 6.52395 1003.1 6.56234C1003.6 6.74536 1003.71 7.19894 1003.28 7.53316L996.094 13.2042L997.322 7.86207C997.405 7.5548 997.572 7.27375 997.806 7.04704C998.04 6.82034 998.332 6.65594 998.654 6.57029L998.723 6.54907C998.817 6.52137 998.901 6.47072 998.967 6.40225C999.033 6.33378 999.079 6.24992 999.1 6.15915L999.396 4.8939C999.413 4.8237 999.412 4.75092 999.395 4.68092C999.378 4.61093 999.344 4.54551 999.296 4.4895C999.249 4.43348 999.189 4.38831 999.121 4.3573C999.052 4.32629 998.978 4.31025 998.902 4.31035L989.645 4.30769ZM1014.43 4.30769C1014.31 4.30835 1014.19 4.34962 1014.09 4.42477C1013.99 4.49992 1013.92 4.60451 1013.89 4.72149L1013.59 6.00265C1013.57 6.12304 1013.58 6.24922 1013.65 6.35727C1013.71 6.46532 1013.81 6.54772 1013.94 6.58886L1013.99 6.61008C1014.56 6.81432 1015.35 7.33687 1015.01 8.62069L1011.63 23.1565C1011.61 23.2272 1011.61 23.3007 1011.63 23.3713C1011.65 23.442 1011.68 23.508 1011.73 23.5646C1011.78 23.6212 1011.84 23.6668 1011.91 23.6981C1011.97 23.7294 1012.05 23.7455 1012.13 23.7454H1019.88C1020.12 23.7454 1020.33 23.5862 1020.38 23.366L1020.71 21.9151C1020.74 21.8118 1020.72 21.7038 1020.67 21.6091C1020.62 21.5145 1020.54 21.439 1020.44 21.3952C1020.41 21.384 1020.39 21.3725 1020.36 21.3607C1019.87 21.1326 1019.14 20.6048 1019.39 19.5836C1019.41 19.4509 1020.14 16.2944 1020.14 16.2944H1026.74C1026.98 16.2944 1027.18 16.1353 1027.24 15.9151L1027.85 13.2626C1027.87 13.1911 1027.87 13.1168 1027.85 13.0453C1027.84 12.9738 1027.8 12.907 1027.75 12.8498C1027.71 12.7926 1027.65 12.7466 1027.58 12.7152C1027.51 12.6837 1027.43 12.6678 1027.35 12.6684H1020.99L1022.18 7.52255L1026.62 7.51459C1028.06 7.51459 1028.5 8.23077 1028.42 9.44562L1028.41 9.50928C1028.4 9.57767 1028.41 9.64695 1028.43 9.71257C1028.45 9.77819 1028.49 9.83866 1028.54 9.89001C1028.59 9.94136 1028.64 9.98244 1028.71 10.0105C1028.78 10.0386 1028.85 10.0531 1028.92 10.0531H1030.56C1030.8 10.0531 1031.01 9.8939 1031.06 9.67109L1032.17 4.89655C1032.19 4.82548 1032.19 4.75195 1032.17 4.68134C1032.15 4.61072 1032.12 4.5448 1032.07 4.48837C1032.02 4.43195 1031.96 4.38645 1031.89 4.35519C1031.82 4.32393 1031.75 4.30771 1031.67 4.30769H1014.43Z" fill="#8F90A6"/>
</g>
</g>
<defs>
<clipPath id="clip0_1_90147">
<rect width="1052" height="28" fill="white"/>
</clipPath>
<clipPath id="clip1_1_90147">
<rect width="1100" height="28" fill="white"/>
</clipPath>
<clipPath id="clip2_1_90147">
<rect width="123" height="30" fill="white" transform="translate(476.185 -1)"/>
</clipPath>
</defs>
</svg>
