<svg width="146" height="44" viewBox="0 0 146 44" fill="none" xmlns="http://www.w3.org/2000/svg">
<path d="M15.3741 31.4625H2V41.1559H15.3741V31.4625Z" stroke="#1A2578" stroke-width="1.5" stroke-linecap="round" stroke-linejoin="round"/>
<path d="M28.8706 25.9412H15.374V41.1557H28.8706V25.9412Z" stroke="#1A2578" stroke-width="1.5" stroke-linecap="round" stroke-linejoin="round"/>
<path d="M41.9998 19.7847H28.8706V41.1558H41.9998V19.7847Z" stroke="#1A2578" stroke-width="1.5" stroke-linecap="round" stroke-linejoin="round"/>
<path d="M24.7662 6.23511H7.75439V19.7863H24.7662V6.23511Z" stroke="#BF0830" stroke-width="1.5" stroke-linecap="round" stroke-linejoin="round"/>
<path d="M7.75439 6.23511V10.131C7.75439 10.6468 7.95928 11.1414 8.32397 11.5061C8.68866 11.8708 9.18328 12.0756 9.69903 12.0756H22.8233C23.3387 12.0752 23.8329 11.8701 24.1973 11.5055C24.5616 11.1408 24.7662 10.6465 24.7662 10.131V6.23511H7.75439Z" stroke="#BF0830" stroke-width="1.5" stroke-linecap="round" stroke-linejoin="round"/>
<path d="M13.5967 14.1774V12.0756" stroke="#BF0830" stroke-width="1.5" stroke-linecap="round" stroke-linejoin="round"/>
<path d="M19.0796 14.1774V12.0756" stroke="#BF0830" stroke-width="1.5" stroke-linecap="round" stroke-linejoin="round"/>
<path d="M12.7759 6.23512V2.9549H19.7964V6.23512" stroke="#BF0830" stroke-width="1.5" stroke-linecap="round" stroke-linejoin="round"/>
<path d="M55.7773 25.6758C55.3034 24.4544 55.0664 23.1283 55.0664 21.6973C55.0664 20.2663 55.3034 18.9401 55.7773 17.7188C56.2422 16.5156 56.9167 15.4447 57.8008 14.5059C58.6667 13.5853 59.7057 12.8652 60.918 12.3457C62.1393 11.8262 63.4746 11.5664 64.9238 11.5664C66.3184 11.5664 67.6445 11.8034 68.9023 12.2773C70.1784 12.7604 71.2038 13.4486 71.9785 14.3418L70.2969 15.9824C69.6953 15.3535 68.916 14.834 67.959 14.4238C67.002 14.0137 65.972 13.8086 64.8691 13.8086C63.7845 13.8086 62.791 14.0228 61.8887 14.4512C61.0137 14.8704 60.248 15.4492 59.5918 16.1875C58.9355 16.9258 58.4388 17.7689 58.1016 18.7168C57.7552 19.6829 57.582 20.6855 57.582 21.7246C57.582 22.7546 57.7552 23.748 58.1016 24.7051C58.4388 25.6439 58.9355 26.4824 59.5918 27.2207C60.248 27.959 61.0228 28.5378 61.916 28.957C62.8275 29.3854 63.8483 29.5996 64.9785 29.5996C65.3522 29.5996 65.7715 29.5723 66.2363 29.5176C66.6283 29.472 67.0931 29.3854 67.6309 29.2578C68.0775 29.1484 68.5378 29.0026 69.0117 28.8203C69.4401 28.6471 69.832 28.4284 70.1875 28.1641V22.9824H65.2793V20.7539H72.5117V29.2578C72.0378 29.6771 71.4909 30.0553 70.8711 30.3926C70.3242 30.6934 69.6908 30.9622 68.9707 31.1992C68.3691 31.3997 67.6901 31.5592 66.9336 31.6777C66.2318 31.7871 65.571 31.8418 64.9512 31.8418C63.502 31.8418 62.1576 31.5775 60.918 31.0488C59.6966 30.5293 58.6576 29.8138 57.8008 28.9023C56.9258 27.9727 56.2513 26.8971 55.7773 25.6758ZM75.8613 31.5V18.5664H78.0488V20.5488C78.2038 20.2663 78.4043 19.9792 78.6504 19.6875C78.9147 19.3776 79.179 19.127 79.4434 18.9355C79.6895 18.7533 80.0267 18.5846 80.4551 18.4297C80.8288 18.293 81.2389 18.2246 81.6855 18.2246C81.9681 18.2246 82.2734 18.252 82.6016 18.3066C82.8659 18.3522 83.1758 18.4388 83.5312 18.5664L82.6699 20.6855C82.4603 20.5853 82.2233 20.5169 81.959 20.4805C81.6582 20.4349 81.4167 20.4121 81.2344 20.4121C80.8151 20.4121 80.4505 20.4805 80.1406 20.6172C79.8307 20.7539 79.5482 20.9271 79.293 21.1367C79.0378 21.3464 78.8236 21.5788 78.6504 21.834C78.4681 22.1074 78.3223 22.3626 78.2129 22.5996V31.5H75.8613ZM84.4883 25.0332C84.4883 24.0488 84.6523 23.1556 84.9805 22.3535C85.3268 21.5241 85.7962 20.8086 86.3887 20.207C87.0085 19.5872 87.7103 19.1042 88.4941 18.7578C89.3053 18.4023 90.1895 18.2246 91.1465 18.2246C92.1035 18.2246 92.9831 18.4023 93.7852 18.7578C94.5872 19.1133 95.2936 19.5964 95.9043 20.207C96.4967 20.8086 96.9661 21.5241 97.3125 22.3535C97.6406 23.1556 97.8047 24.0488 97.8047 25.0332C97.8047 26.0085 97.6406 26.8971 97.3125 27.6992C96.9661 28.5469 96.4967 29.2669 95.9043 29.8594C95.2936 30.4701 94.5872 30.9531 93.7852 31.3086C92.9831 31.6641 92.1035 31.8418 91.1465 31.8418C90.1895 31.8418 89.3053 31.6641 88.4941 31.3086C87.7103 30.9622 87.0085 30.4792 86.3887 29.8594C85.7962 29.2669 85.3268 28.5469 84.9805 27.6992C84.6523 26.8971 84.4883 26.0085 84.4883 25.0332ZM87.1406 23.2422C86.9401 23.7891 86.8398 24.3861 86.8398 25.0332C86.8398 25.6803 86.9401 26.2773 87.1406 26.8242C87.3411 27.3711 87.6328 27.8633 88.0156 28.3008C88.362 28.7018 88.8132 29.0299 89.3691 29.2852C89.9069 29.5312 90.4993 29.6543 91.1465 29.6543C91.7936 29.6543 92.3861 29.5312 92.9238 29.2852C93.4798 29.0299 93.931 28.7018 94.2773 28.3008C94.6602 27.8633 94.9518 27.3711 95.1523 26.8242C95.3529 26.2773 95.4531 25.6803 95.4531 25.0332C95.4531 24.3861 95.3529 23.7891 95.1523 23.2422C94.9518 22.6953 94.6602 22.2031 94.2773 21.7656C93.931 21.3646 93.4798 21.0365 92.9238 20.7812C92.3952 20.5352 91.8027 20.4121 91.1465 20.4121C90.4993 20.4121 89.9069 20.5352 89.3691 20.7812C88.8132 21.0365 88.362 21.3646 88.0156 21.7656C87.6328 22.2031 87.3411 22.6953 87.1406 23.2422ZM98.9258 18.5664H101.482L104.955 26.9336L108.373 18.5664H109.959L113.404 26.9336L116.85 18.5664H119.256L113.35 32.0605L109.098 22.3398L104.846 32.0605L98.9258 18.5664ZM120.158 20.6855V18.5664H122.674V14.6152H125.039V18.5664H129.059V20.6855H125.039V27.6582C125.039 28.3053 125.194 28.7975 125.504 29.1348C125.823 29.4811 126.265 29.6543 126.83 29.6543C127.158 29.6543 127.436 29.6042 127.664 29.5039C127.901 29.3945 128.143 29.2669 128.389 29.1211L129.264 31.0488C128.717 31.3587 128.225 31.5684 127.787 31.6777C127.359 31.7871 126.971 31.8418 126.625 31.8418C126.142 31.8418 125.668 31.7598 125.203 31.5957C124.711 31.4225 124.292 31.181 123.945 30.8711C123.553 30.5247 123.248 30.1055 123.029 29.6133C122.792 29.0846 122.674 28.474 122.674 27.7812V20.6855H120.158ZM132.312 31.5V10.3359H134.664V20.1387C134.755 20.002 134.906 19.8242 135.115 19.6055C135.352 19.3503 135.607 19.1406 135.881 18.9766C136.209 18.776 136.578 18.6029 136.988 18.457C137.426 18.3021 137.918 18.2246 138.465 18.2246C139.103 18.2246 139.718 18.334 140.311 18.5527C140.903 18.7715 141.418 19.0859 141.855 19.4961C142.302 19.9154 142.662 20.4349 142.936 21.0547C143.209 21.6745 143.346 22.3854 143.346 23.1875V31.5H140.994V23.5703C140.994 23.0417 140.908 22.5677 140.734 22.1484C140.57 21.7474 140.352 21.4193 140.078 21.1641C139.796 20.8997 139.481 20.7083 139.135 20.5898C138.779 20.4714 138.401 20.4121 138 20.4121C137.544 20.4121 137.157 20.4759 136.838 20.6035C136.464 20.7493 136.154 20.9225 135.908 21.123C135.635 21.3418 135.398 21.5788 135.197 21.834C135.006 22.0801 134.828 22.3353 134.664 22.5996V31.5H132.312Z" fill="#3A3A3C"/>
</svg>
