<svg width="120" height="44" viewBox="0 0 120 44" fill="none" xmlns="http://www.w3.org/2000/svg">
<path d="M4.30358 7.81317C4.30358 7.81317 40.891 7.4487 40.891 7.81317V33.0318H27.8447L27.3261 34.1549H17.9978L17.3483 33.1253H4.29736L4.30358 7.81317Z" stroke="#1A2578" stroke-width="1.5" stroke-linecap="round" stroke-linejoin="round"/>
<path d="M38.483 10.1699H6.66797V30.7205H38.483V10.1699Z" stroke="#BF0830" stroke-width="1.5" stroke-linecap="round" stroke-linejoin="round"/>
<path d="M4.30364 33.1269H2V36.2H43V33.1269H40.891" stroke="#1A2578" stroke-width="1.5" stroke-linecap="round" stroke-linejoin="round"/>
<path d="M56.2969 31.5V11.8945H61.3691C63.4108 11.8945 65.0378 12.4095 66.25 13.4395C67.4531 14.4694 68.0547 15.9277 68.0547 17.8145C68.0547 19.7012 67.4531 21.1549 66.25 22.1758C65.0378 23.2057 63.4108 23.7207 61.3691 23.7207H58.6484V31.5H56.2969ZM58.6484 21.4785H61.2188C62.5677 21.4785 63.6523 21.1777 64.4727 20.5762C65.293 19.9746 65.7031 19.054 65.7031 17.8145C65.7031 16.5658 65.293 15.6406 64.4727 15.0391C63.6523 14.4375 62.5677 14.1367 61.2188 14.1367H58.6484V21.4785ZM69.6953 24.9785C69.6953 24.0215 69.8457 23.151 70.1465 22.3672C70.4564 21.556 70.8939 20.8405 71.459 20.2207C72.0332 19.5918 72.7077 19.1042 73.4824 18.7578C74.2754 18.4023 75.1595 18.2246 76.1348 18.2246C77.0371 18.2246 77.8802 18.3887 78.6641 18.7168C79.4388 19.0449 80.1042 19.5052 80.6602 20.0977C81.2344 20.7174 81.6764 21.4421 81.9863 22.2715C82.2962 23.11 82.4512 24.0579 82.4512 25.1152V25.4844C82.4512 25.5391 82.4421 25.6667 82.4238 25.8672H71.9785C72.0241 26.3776 72.1654 26.8516 72.4023 27.2891C72.6576 27.7539 72.9766 28.1595 73.3594 28.5059C73.7513 28.8522 74.207 29.1302 74.7266 29.3398C75.2552 29.5495 75.8249 29.6543 76.4355 29.6543C77.347 29.6543 78.1263 29.4583 78.7734 29.0664C79.457 28.6562 79.9766 28.2188 80.332 27.7539L81.8086 29.2852C81.526 29.6133 81.207 29.9277 80.8516 30.2285C80.5234 30.502 80.1133 30.7754 79.6211 31.0488C79.1745 31.2949 78.6732 31.4863 78.1172 31.623C77.5339 31.7689 76.946 31.8418 76.3535 31.8418C75.4056 31.8418 74.5169 31.6686 73.6875 31.3223C72.8854 30.9941 72.1836 30.5111 71.582 29.873C70.9987 29.2624 70.5339 28.5332 70.1875 27.6855C69.8594 26.8835 69.6953 25.9811 69.6953 24.9785ZM72.0469 23.9121H80.1543C80.1452 23.5566 80.0495 23.1738 79.8672 22.7637C79.6849 22.3444 79.4342 21.9616 79.1152 21.6152C78.7871 21.2598 78.377 20.9727 77.8848 20.7539C77.3743 20.526 76.791 20.4121 76.1348 20.4121C75.4421 20.4121 74.8496 20.5352 74.3574 20.7812C73.8379 21.0365 73.4232 21.3281 73.1133 21.6562C72.7943 21.9844 72.5436 22.3626 72.3613 22.791C72.1973 23.1738 72.0924 23.5475 72.0469 23.9121ZM85.1309 31.5V18.5664H87.3184V20.5488C87.4733 20.2663 87.6738 19.9792 87.9199 19.6875C88.1842 19.3776 88.4486 19.127 88.7129 18.9355C88.959 18.7533 89.2962 18.5846 89.7246 18.4297C90.0983 18.293 90.5085 18.2246 90.9551 18.2246C91.2376 18.2246 91.543 18.252 91.8711 18.3066C92.1354 18.3522 92.4453 18.4388 92.8008 18.5664L91.9395 20.6855C91.7298 20.5853 91.4928 20.5169 91.2285 20.4805C90.9277 20.4349 90.6862 20.4121 90.5039 20.4121C90.0846 20.4121 89.7201 20.4805 89.4102 20.6172C89.1003 20.7539 88.8177 20.9271 88.5625 21.1367C88.3073 21.3464 88.0931 21.5788 87.9199 21.834C87.7376 22.1074 87.5918 22.3626 87.4824 22.5996V31.5H85.1309ZM95.1523 31.5V10.3359H97.5039V24.3086L103.041 18.5664H106.131L100.074 24.6641L106.637 31.5H103.355L97.5039 25.2246V31.5H95.1523ZM107.648 29.1211L109.262 27.6035C109.408 27.8223 109.617 28.0684 109.891 28.3418C110.118 28.5697 110.415 28.793 110.779 29.0117C111.107 29.2031 111.477 29.3717 111.887 29.5176C112.26 29.6452 112.702 29.709 113.213 29.709C113.514 29.709 113.828 29.6816 114.156 29.627C114.439 29.5814 114.735 29.4811 115.045 29.3262C115.309 29.1895 115.533 29.0117 115.715 28.793C115.897 28.5651 115.988 28.3008 115.988 28C115.988 27.7083 115.897 27.4486 115.715 27.2207C115.533 26.9928 115.3 26.806 115.018 26.6602C114.735 26.5143 114.421 26.3913 114.074 26.291C113.728 26.1908 113.386 26.1087 113.049 26.0449C112.666 25.9629 112.178 25.8307 111.586 25.6484C111.066 25.4935 110.556 25.2656 110.055 24.9648C109.581 24.6823 109.171 24.304 108.824 23.8301C108.487 23.3743 108.318 22.8047 108.318 22.1211C108.318 21.5924 108.428 21.0911 108.646 20.6172C108.856 20.1523 109.18 19.7376 109.617 19.373C110.027 19.0267 110.529 18.7487 111.121 18.5391C111.704 18.3294 112.356 18.2246 113.076 18.2246C114.179 18.2246 115.136 18.4297 115.947 18.8398C116.74 19.2409 117.378 19.6921 117.861 20.1934L116.33 21.7793C116.029 21.4785 115.587 21.1595 115.004 20.8223C114.466 20.5124 113.805 20.3574 113.021 20.3574C112.247 20.3574 111.65 20.5306 111.23 20.877C110.82 21.2142 110.615 21.6016 110.615 22.0391C110.615 22.3398 110.702 22.5905 110.875 22.791C111.066 23.0098 111.303 23.1829 111.586 23.3105C111.878 23.4473 112.215 23.5703 112.598 23.6797C112.716 23.7161 113.099 23.8118 113.746 23.9668C114.147 24.0579 114.658 24.1992 115.277 24.3906C115.797 24.5456 116.285 24.778 116.74 25.0879C117.178 25.3796 117.551 25.7578 117.861 26.2227C118.162 26.6784 118.312 27.2435 118.312 27.918C118.312 28.5924 118.162 29.1758 117.861 29.668C117.551 30.1693 117.164 30.5749 116.699 30.8848C116.234 31.1947 115.688 31.4316 115.059 31.5957C114.439 31.7598 113.824 31.8418 113.213 31.8418C112.566 31.8418 111.955 31.7598 111.381 31.5957C110.788 31.4225 110.269 31.2129 109.822 30.9668C109.348 30.7025 108.929 30.4154 108.564 30.1055C108.209 29.8047 107.904 29.4766 107.648 29.1211Z" fill="#3A3A3C"/>
</svg>
