<svg width="159" height="44" viewBox="0 0 159 44" fill="none" xmlns="http://www.w3.org/2000/svg">
<path d="M7.25721 40.3564C10.1607 40.3564 12.5144 38.0027 12.5144 35.0992C12.5144 32.1957 10.1607 29.842 7.25721 29.842C4.35373 29.842 2 32.1957 2 35.0992C2 38.0027 4.35373 40.3564 7.25721 40.3564Z" stroke="#1A2578" stroke-width="1.5" stroke-linecap="round" stroke-linejoin="round"/>
<path d="M36.9802 40.8313C39.7525 40.8313 41.9999 38.5839 41.9999 35.8116C41.9999 33.0393 39.7525 30.7919 36.9802 30.7919C34.2079 30.7919 31.9604 33.0393 31.9604 35.8116C31.9604 38.5839 34.2079 40.8313 36.9802 40.8313Z" stroke="#1A2578" stroke-width="1.5" stroke-linecap="round" stroke-linejoin="round"/>
<path d="M35.0042 11.1083C36.9904 11.1083 38.6006 9.4981 38.6006 7.51184C38.6006 5.52558 36.9904 3.91541 35.0042 3.91541C33.0179 3.91541 31.4077 5.52558 31.4077 7.51184C31.4077 9.4981 33.0179 11.1083 35.0042 11.1083Z" stroke="#1A2578" stroke-width="1.5" stroke-linecap="round" stroke-linejoin="round"/>
<path d="M7.92911 10.238C9.84979 10.238 11.4068 8.68103 11.4068 6.76035C11.4068 4.83967 9.84979 3.28265 7.92911 3.28265C6.00843 3.28265 4.45142 4.83967 4.45142 6.76035C4.45142 8.68103 6.00843 10.238 7.92911 10.238Z" stroke="#1A2578" stroke-width="1.5" stroke-linecap="round" stroke-linejoin="round"/>
<path d="M21.921 30.3968C27.3785 30.3968 31.8027 25.9726 31.8027 20.5151C31.8027 15.0576 27.3785 10.6334 21.921 10.6334C16.4635 10.6334 12.0393 15.0576 12.0393 20.5151C12.0393 25.9726 16.4635 30.3968 21.921 30.3968Z" stroke="#BF0830" stroke-width="1.5" stroke-linecap="round" stroke-linejoin="round"/>
<path d="M21.6838 26.6815C24.8712 26.6815 27.455 24.0977 27.455 20.9103C27.455 17.723 24.8712 15.1391 21.6838 15.1391C18.4965 15.1391 15.9126 17.723 15.9126 20.9103C15.9126 24.0977 18.4965 26.6815 21.6838 26.6815Z" stroke="#BF0830" stroke-width="1.5" stroke-linecap="round" stroke-linejoin="round"/>
<path d="M10.1021 9.47516L17.643 16.7917" stroke="#1A2578" stroke-width="1.5" stroke-linecap="round" stroke-linejoin="round"/>
<path d="M32.3835 9.97449L25.9666 17.0437" stroke="#1A2578" stroke-width="1.5" stroke-linecap="round" stroke-linejoin="round"/>
<path d="M33.2765 32.4218L25.9666 24.7767" stroke="#1A2578" stroke-width="1.5" stroke-linecap="round" stroke-linejoin="round"/>
<path d="M11.21 31.6362L17.6432 25.0289" stroke="#1A2578" stroke-width="1.5" stroke-linecap="round" stroke-linejoin="round"/>
<path d="M56.2969 31.5V11.8945H58.7305L69.2305 27.5762V11.8945H71.582V31.5H69.1484L58.6484 15.8184V31.5H56.2969ZM74.7812 24.9785C74.7812 24.0215 74.9316 23.151 75.2324 22.3672C75.5423 21.556 75.9798 20.8405 76.5449 20.2207C77.1191 19.5918 77.7936 19.1042 78.5684 18.7578C79.3613 18.4023 80.2454 18.2246 81.2207 18.2246C82.123 18.2246 82.9661 18.3887 83.75 18.7168C84.5247 19.0449 85.1901 19.5052 85.7461 20.0977C86.3203 20.7174 86.7624 21.4421 87.0723 22.2715C87.3822 23.11 87.5371 24.0579 87.5371 25.1152V25.4844C87.5371 25.5391 87.528 25.6667 87.5098 25.8672H77.0645C77.11 26.3776 77.2513 26.8516 77.4883 27.2891C77.7435 27.7539 78.0625 28.1595 78.4453 28.5059C78.8372 28.8522 79.293 29.1302 79.8125 29.3398C80.3411 29.5495 80.9108 29.6543 81.5215 29.6543C82.4329 29.6543 83.2122 29.4583 83.8594 29.0664C84.543 28.6562 85.0625 28.2188 85.418 27.7539L86.8945 29.2852C86.612 29.6133 86.293 29.9277 85.9375 30.2285C85.6094 30.502 85.1992 30.7754 84.707 31.0488C84.2604 31.2949 83.7591 31.4863 83.2031 31.623C82.6198 31.7689 82.0319 31.8418 81.4395 31.8418C80.4915 31.8418 79.6029 31.6686 78.7734 31.3223C77.9714 30.9941 77.2695 30.5111 76.668 29.873C76.0846 29.2624 75.6198 28.5332 75.2734 27.6855C74.9453 26.8835 74.7812 25.9811 74.7812 24.9785ZM77.1328 23.9121H85.2402C85.2311 23.5566 85.1354 23.1738 84.9531 22.7637C84.7708 22.3444 84.5202 21.9616 84.2012 21.6152C83.873 21.2598 83.4629 20.9727 82.9707 20.7539C82.4603 20.526 81.877 20.4121 81.2207 20.4121C80.528 20.4121 79.9355 20.5352 79.4434 20.7812C78.9238 21.0365 78.5091 21.3281 78.1992 21.6562C77.8802 21.9844 77.6296 22.3626 77.4473 22.791C77.2832 23.1738 77.1784 23.5475 77.1328 23.9121ZM89.0957 20.6855V18.5664H91.6113V14.6152H93.9766V18.5664H97.9961V20.6855H93.9766V27.6582C93.9766 28.3053 94.1315 28.7975 94.4414 29.1348C94.7604 29.4811 95.2025 29.6543 95.7676 29.6543C96.0957 29.6543 96.3737 29.6042 96.6016 29.5039C96.8385 29.3945 97.0801 29.2669 97.3262 29.1211L98.2012 31.0488C97.6543 31.3587 97.1621 31.5684 96.7246 31.6777C96.2962 31.7871 95.9089 31.8418 95.5625 31.8418C95.0794 31.8418 94.6055 31.7598 94.1406 31.5957C93.6484 31.4225 93.2292 31.181 92.8828 30.8711C92.4909 30.5247 92.1855 30.1055 91.9668 29.6133C91.7298 29.0846 91.6113 28.474 91.6113 27.7812V20.6855H89.0957ZM99.1719 18.5664H101.729L105.201 26.9336L108.619 18.5664H110.205L113.65 26.9336L117.096 18.5664H119.502L113.596 32.0605L109.344 22.3398L105.092 32.0605L99.1719 18.5664ZM120.637 25.0332C120.637 24.0488 120.801 23.1556 121.129 22.3535C121.475 21.5241 121.945 20.8086 122.537 20.207C123.157 19.5872 123.859 19.1042 124.643 18.7578C125.454 18.4023 126.338 18.2246 127.295 18.2246C128.252 18.2246 129.132 18.4023 129.934 18.7578C130.736 19.1133 131.442 19.5964 132.053 20.207C132.645 20.8086 133.115 21.5241 133.461 22.3535C133.789 23.1556 133.953 24.0488 133.953 25.0332C133.953 26.0085 133.789 26.8971 133.461 27.6992C133.115 28.5469 132.645 29.2669 132.053 29.8594C131.442 30.4701 130.736 30.9531 129.934 31.3086C129.132 31.6641 128.252 31.8418 127.295 31.8418C126.338 31.8418 125.454 31.6641 124.643 31.3086C123.859 30.9622 123.157 30.4792 122.537 29.8594C121.945 29.2669 121.475 28.5469 121.129 27.6992C120.801 26.8971 120.637 26.0085 120.637 25.0332ZM123.289 23.2422C123.089 23.7891 122.988 24.3861 122.988 25.0332C122.988 25.6803 123.089 26.2773 123.289 26.8242C123.49 27.3711 123.781 27.8633 124.164 28.3008C124.51 28.7018 124.962 29.0299 125.518 29.2852C126.055 29.5312 126.648 29.6543 127.295 29.6543C127.942 29.6543 128.535 29.5312 129.072 29.2852C129.628 29.0299 130.079 28.7018 130.426 28.3008C130.809 27.8633 131.1 27.3711 131.301 26.8242C131.501 26.2773 131.602 25.6803 131.602 25.0332C131.602 24.3861 131.501 23.7891 131.301 23.2422C131.1 22.6953 130.809 22.2031 130.426 21.7656C130.079 21.3646 129.628 21.0365 129.072 20.7812C128.544 20.5352 127.951 20.4121 127.295 20.4121C126.648 20.4121 126.055 20.5352 125.518 20.7812C124.962 21.0365 124.51 21.3646 124.164 21.7656C123.781 22.2031 123.49 22.6953 123.289 23.2422ZM136.646 31.5V18.5664H138.834V20.5488C138.989 20.2663 139.189 19.9792 139.436 19.6875C139.7 19.3776 139.964 19.127 140.229 18.9355C140.475 18.7533 140.812 18.5846 141.24 18.4297C141.614 18.293 142.024 18.2246 142.471 18.2246C142.753 18.2246 143.059 18.252 143.387 18.3066C143.651 18.3522 143.961 18.4388 144.316 18.5664L143.455 20.6855C143.245 20.5853 143.008 20.5169 142.744 20.4805C142.443 20.4349 142.202 20.4121 142.02 20.4121C141.6 20.4121 141.236 20.4805 140.926 20.6172C140.616 20.7539 140.333 20.9271 140.078 21.1367C139.823 21.3464 139.609 21.5788 139.436 21.834C139.253 22.1074 139.107 22.3626 138.998 22.5996V31.5H136.646ZM146.668 31.5V10.3359H149.02V24.3086L154.557 18.5664H157.646L151.59 24.6641L158.152 31.5H154.871L149.02 25.2246V31.5H146.668Z" fill="#3A3A3C"/>
</svg>
