<svg width="179" height="44" viewBox="0 0 179 44" fill="none" xmlns="http://www.w3.org/2000/svg">
<path d="M2.60938 31.6349V39.7556H13.9697V31.6349L8.28954 28.5201L2.60938 31.6349Z" stroke="#1A2578" stroke-width="1.5" stroke-linecap="round" stroke-linejoin="round"/>
<path d="M10.3812 33.4267H6.4209V39.7538H10.3812V33.4267Z" stroke="#1A2578" stroke-width="1.5" stroke-linecap="round" stroke-linejoin="round"/>
<path d="M21.4865 31.8749C26.7816 31.8749 31.0741 27.5824 31.0741 22.2874C31.0741 16.9923 26.7816 12.6998 21.4865 12.6998C16.1914 12.6998 11.8989 16.9923 11.8989 22.2874C11.8989 27.5824 16.1914 31.8749 21.4865 31.8749Z" stroke="#BF0830" stroke-width="1.5" stroke-linecap="round" stroke-linejoin="round"/>
<path d="M15.3164 24.1627L19.0925 27.9372L27.8474 19.1823L25.8792 17.2142L19.0477 24.0442L17.2557 22.2522L15.3164 24.1627Z" stroke="#BF0830" stroke-width="1.5" stroke-linecap="round" stroke-linejoin="round"/>
<path d="M40.4204 3.487H29.2202V14.4662H40.4204V3.487Z" stroke="#1A2578" stroke-width="1.5" stroke-linecap="round" stroke-linejoin="round"/>
<path d="M36.9131 9.8125H32.7271V14.4662H36.9131V9.8125Z" stroke="#1A2578" stroke-width="1.5" stroke-linecap="round" stroke-linejoin="round"/>
<path d="M4.74756 21.9992C4.74746 17.7904 6.33277 13.7361 9.18771 10.6438C12.0427 7.55141 15.9577 5.64795 20.153 5.31256" stroke="#1A2578" stroke-width="1.5" stroke-linecap="round" stroke-linejoin="round"/>
<path d="M16.7999 10.9751L15.8471 10.1936L19.6968 5.50314L14.7373 2.00567L15.4483 1L21.4888 5.26133L16.7999 10.9751Z" fill="#1A2578"/>
<path d="M38.2282 21.9993C38.2284 26.2082 36.6431 30.2627 33.7882 33.3553C30.9333 36.4479 27.0182 38.3517 22.8228 38.6875" stroke="#1A2578" stroke-width="1.5" stroke-linecap="round" stroke-linejoin="round"/>
<path d="M26.1757 33.0249L27.1285 33.8048L23.2788 38.4969L28.2383 41.9944L27.5273 43L21.4868 38.7387L26.1757 33.0249Z" fill="#1A2578"/>
<path d="M56.2969 31.5V11.8945H67.3574V14.1367H58.6484V20.3301H66.7969V22.5723H58.6484V31.5H56.2969ZM70.9531 31.5V10.3359H73.3047V31.5H70.9531ZM76.5039 24.9785C76.5039 24.0215 76.6543 23.151 76.9551 22.3672C77.265 21.556 77.7025 20.8405 78.2676 20.2207C78.8418 19.5918 79.5163 19.1042 80.291 18.7578C81.084 18.4023 81.9681 18.2246 82.9434 18.2246C83.8457 18.2246 84.6888 18.3887 85.4727 18.7168C86.2474 19.0449 86.9128 19.5052 87.4688 20.0977C88.043 20.7174 88.485 21.4421 88.7949 22.2715C89.1048 23.11 89.2598 24.0579 89.2598 25.1152V25.4844C89.2598 25.5391 89.2507 25.6667 89.2324 25.8672H78.7871C78.8327 26.3776 78.974 26.8516 79.2109 27.2891C79.4661 27.7539 79.7852 28.1595 80.168 28.5059C80.5599 28.8522 81.0156 29.1302 81.5352 29.3398C82.0638 29.5495 82.6335 29.6543 83.2441 29.6543C84.1556 29.6543 84.9349 29.4583 85.582 29.0664C86.2656 28.6562 86.7852 28.2188 87.1406 27.7539L88.6172 29.2852C88.3346 29.6133 88.0156 29.9277 87.6602 30.2285C87.332 30.502 86.9219 30.7754 86.4297 31.0488C85.9831 31.2949 85.4818 31.4863 84.9258 31.623C84.3424 31.7689 83.7546 31.8418 83.1621 31.8418C82.2142 31.8418 81.3255 31.6686 80.4961 31.3223C79.694 30.9941 78.9922 30.5111 78.3906 29.873C77.8073 29.2624 77.3424 28.5332 76.9961 27.6855C76.668 26.8835 76.5039 25.9811 76.5039 24.9785ZM78.8555 23.9121H86.9629C86.9538 23.5566 86.8581 23.1738 86.6758 22.7637C86.4935 22.3444 86.2428 21.9616 85.9238 21.6152C85.5957 21.2598 85.1855 20.9727 84.6934 20.7539C84.1829 20.526 83.5996 20.4121 82.9434 20.4121C82.2507 20.4121 81.6582 20.5352 81.166 20.7812C80.6465 21.0365 80.2318 21.3281 79.9219 21.6562C79.6029 21.9844 79.3522 22.3626 79.1699 22.791C79.0059 23.1738 78.901 23.5475 78.8555 23.9121ZM90.7637 31.5L95.4668 24.8418L91.0508 18.5664H93.7852L97.0664 23.3242L100.307 18.5664H102.918L98.5703 24.8418L103.219 31.5H100.457L96.9023 26.4277L93.4023 31.5H90.7637ZM106.117 15.5449C105.798 15.2259 105.639 14.8522 105.639 14.4238C105.639 13.9954 105.798 13.6217 106.117 13.3027C106.436 12.9837 106.81 12.8242 107.238 12.8242C107.667 12.8242 108.04 12.9837 108.359 13.3027C108.678 13.6217 108.838 13.9954 108.838 14.4238C108.838 14.8522 108.678 15.2259 108.359 15.5449C108.049 15.8548 107.676 16.0098 107.238 16.0098C106.801 16.0098 106.427 15.8548 106.117 15.5449ZM106.062 31.5V18.5664H108.414V31.5H106.062ZM112.926 31.5V10.3359H115.277V20.166C115.624 19.7194 116.143 19.2819 116.836 18.8535C117.529 18.4342 118.399 18.2246 119.447 18.2246C120.322 18.2246 121.143 18.4023 121.908 18.7578C122.665 19.1133 123.33 19.5964 123.904 20.207C124.46 20.7995 124.902 21.515 125.23 22.3535C125.559 23.1829 125.723 24.0762 125.723 25.0332C125.723 25.972 125.559 26.8607 125.23 27.6992C124.893 28.556 124.447 29.276 123.891 29.8594C123.298 30.4792 122.628 30.9622 121.881 31.3086C121.115 31.6641 120.295 31.8418 119.42 31.8418C118.882 31.8418 118.385 31.7734 117.93 31.6367C117.438 31.4909 117.023 31.3223 116.686 31.1309C116.348 30.9486 116.034 30.7161 115.742 30.4336C115.478 30.1784 115.259 29.9095 115.086 29.627V31.5H112.926ZM115.277 27.4121C115.423 27.6764 115.615 27.9362 115.852 28.1914C116.098 28.474 116.376 28.7155 116.686 28.916C116.977 29.1165 117.342 29.2897 117.779 29.4355C118.199 29.5814 118.654 29.6543 119.146 29.6543C119.785 29.6543 120.363 29.5312 120.883 29.2852C121.411 29.0299 121.854 28.7018 122.209 28.3008C122.564 27.8906 122.847 27.3984 123.057 26.8242C123.266 26.25 123.371 25.653 123.371 25.0332C123.371 24.4134 123.266 23.8164 123.057 23.2422C122.847 22.6771 122.56 22.1849 122.195 21.7656C121.849 21.3646 121.402 21.0365 120.855 20.7812C120.336 20.5352 119.757 20.4121 119.119 20.4121C118.189 20.4121 117.415 20.6354 116.795 21.082C116.139 21.556 115.633 22.0801 115.277 22.6543V27.4121ZM128.922 31.5V10.3359H131.273V31.5H128.922ZM135.84 15.5449C135.521 15.2259 135.361 14.8522 135.361 14.4238C135.361 13.9954 135.521 13.6217 135.84 13.3027C136.159 12.9837 136.533 12.8242 136.961 12.8242C137.389 12.8242 137.763 12.9837 138.082 13.3027C138.401 13.6217 138.561 13.9954 138.561 14.4238C138.561 14.8522 138.401 15.2259 138.082 15.5449C137.772 15.8548 137.398 16.0098 136.961 16.0098C136.523 16.0098 136.15 15.8548 135.84 15.5449ZM135.785 31.5V18.5664H138.137V31.5H135.785ZM142.648 31.5V10.3359H145V31.5H142.648ZM149.566 15.5449C149.247 15.2259 149.088 14.8522 149.088 14.4238C149.088 13.9954 149.247 13.6217 149.566 13.3027C149.885 12.9837 150.259 12.8242 150.688 12.8242C151.116 12.8242 151.49 12.9837 151.809 13.3027C152.128 13.6217 152.287 13.9954 152.287 14.4238C152.287 14.8522 152.128 15.2259 151.809 15.5449C151.499 15.8548 151.125 16.0098 150.688 16.0098C150.25 16.0098 149.876 15.8548 149.566 15.5449ZM149.512 31.5V18.5664H151.863V31.5H149.512ZM154.748 20.6855V18.5664H157.264V14.6152H159.629V18.5664H163.648V20.6855H159.629V27.6582C159.629 28.3053 159.784 28.7975 160.094 29.1348C160.413 29.4811 160.855 29.6543 161.42 29.6543C161.748 29.6543 162.026 29.6042 162.254 29.5039C162.491 29.3945 162.732 29.2669 162.979 29.1211L163.854 31.0488C163.307 31.3587 162.814 31.5684 162.377 31.6777C161.949 31.7871 161.561 31.8418 161.215 31.8418C160.732 31.8418 160.258 31.7598 159.793 31.5957C159.301 31.4225 158.882 31.181 158.535 30.8711C158.143 30.5247 157.838 30.1055 157.619 29.6133C157.382 29.0846 157.264 28.474 157.264 27.7812V20.6855H154.748ZM164.879 18.5664H167.545L172.084 28.7793L175.939 18.5664H178.496L175.215 26.8242L173.984 29.9141L172.877 32.6758L172.07 34.7266L171.688 35.6699C171.314 36.6087 170.794 37.2786 170.129 37.6797C169.464 38.0807 168.789 38.2812 168.105 38.2812C167.522 38.2812 166.984 38.1764 166.492 37.9668C166 37.7572 165.622 37.5521 165.357 37.3516L166.369 35.4238C166.934 35.8704 167.467 36.0938 167.969 36.0938C168.461 36.0938 168.844 35.9206 169.117 35.5742C169.391 35.237 169.66 34.7448 169.924 34.0977L170.936 31.5547L164.879 18.5664Z" fill="#3A3A3C"/>
</svg>
