<svg width="177" height="44" viewBox="0 0 177 44" fill="none" xmlns="http://www.w3.org/2000/svg">
<path d="M23.0255 19.1204V37.4275C23.0257 37.9513 22.9228 38.4701 22.7225 38.9541C22.5221 39.4381 22.2284 39.8779 21.8581 40.2484C21.4877 40.6189 21.0481 40.9128 20.5641 41.1133C20.0802 41.3138 19.5615 41.417 19.0377 41.417V41.417C18.5138 41.417 17.9951 41.3138 17.5112 41.1133C17.0273 40.9128 16.5876 40.6189 16.2173 40.2484C15.8469 39.8779 15.5532 39.4381 15.3529 38.9541C15.1526 38.4701 15.0496 37.9513 15.0498 37.4275V35.0057" stroke="#BF0830" stroke-width="1.5" stroke-linecap="round" stroke-linejoin="round"/>
<path d="M4 21.8312C4 21.8312 6.81086 4.99493 23.0255 4.99493C39.2402 4.99493 41 21.8312 41 21.8312C41 21.8312 35.1264 16.2514 28.6667 21.8312C28.6667 21.8312 21.6193 15.1745 16.1364 21.8312C16.1364 21.8312 9.67666 15.6637 4 21.8312Z" stroke="#1A2578" stroke-width="1.5" stroke-linecap="round" stroke-linejoin="round"/>
<path d="M23.0254 4.99494V2" stroke="#BF0830" stroke-width="1.5" stroke-linecap="round" stroke-linejoin="round"/>
<path d="M54.1094 11.8945H56.748L61.6973 25.4844L66.5098 11.8945H68.2188L72.9902 25.4844L77.9941 11.8945H80.4824L72.9219 32.0605L67.3027 16.6387L61.6426 32.0605L54.1094 11.8945ZM81.5078 24.9785C81.5078 24.0215 81.6582 23.151 81.959 22.3672C82.2689 21.556 82.7064 20.8405 83.2715 20.2207C83.8457 19.5918 84.5202 19.1042 85.2949 18.7578C86.0879 18.4023 86.972 18.2246 87.9473 18.2246C88.8496 18.2246 89.6927 18.3887 90.4766 18.7168C91.2513 19.0449 91.9167 19.5052 92.4727 20.0977C93.0469 20.7174 93.4889 21.4421 93.7988 22.2715C94.1087 23.11 94.2637 24.0579 94.2637 25.1152V25.4844C94.2637 25.5391 94.2546 25.6667 94.2363 25.8672H83.791C83.8366 26.3776 83.9779 26.8516 84.2148 27.2891C84.4701 27.7539 84.7891 28.1595 85.1719 28.5059C85.5638 28.8522 86.0195 29.1302 86.5391 29.3398C87.0677 29.5495 87.6374 29.6543 88.248 29.6543C89.1595 29.6543 89.9388 29.4583 90.5859 29.0664C91.2695 28.6562 91.7891 28.2188 92.1445 27.7539L93.6211 29.2852C93.3385 29.6133 93.0195 29.9277 92.6641 30.2285C92.3359 30.502 91.9258 30.7754 91.4336 31.0488C90.987 31.2949 90.4857 31.4863 89.9297 31.623C89.3464 31.7689 88.7585 31.8418 88.166 31.8418C87.2181 31.8418 86.3294 31.6686 85.5 31.3223C84.6979 30.9941 83.9961 30.5111 83.3945 29.873C82.8112 29.2624 82.3464 28.5332 82 27.6855C81.6719 26.8835 81.5078 25.9811 81.5078 24.9785ZM83.8594 23.9121H91.9668C91.9577 23.5566 91.862 23.1738 91.6797 22.7637C91.4974 22.3444 91.2467 21.9616 90.9277 21.6152C90.5996 21.2598 90.1895 20.9727 89.6973 20.7539C89.1868 20.526 88.6035 20.4121 87.9473 20.4121C87.2546 20.4121 86.6621 20.5352 86.1699 20.7812C85.6504 21.0365 85.2357 21.3281 84.9258 21.6562C84.6068 21.9844 84.3561 22.3626 84.1738 22.791C84.0098 23.1738 83.9049 23.5475 83.8594 23.9121ZM97.4492 31.5V10.3359H99.8008V31.5H97.4492ZM104.395 31.5V10.3359H106.746V31.5H104.395ZM111.34 31.5V10.3359H113.691V20.166C114.038 19.7194 114.557 19.2819 115.25 18.8535C115.943 18.4342 116.813 18.2246 117.861 18.2246C118.736 18.2246 119.557 18.4023 120.322 18.7578C121.079 19.1133 121.744 19.5964 122.318 20.207C122.874 20.7995 123.316 21.515 123.645 22.3535C123.973 23.1829 124.137 24.0762 124.137 25.0332C124.137 25.972 123.973 26.8607 123.645 27.6992C123.307 28.556 122.861 29.276 122.305 29.8594C121.712 30.4792 121.042 30.9622 120.295 31.3086C119.529 31.6641 118.709 31.8418 117.834 31.8418C117.296 31.8418 116.799 31.7734 116.344 31.6367C115.852 31.4909 115.437 31.3223 115.1 31.1309C114.762 30.9486 114.448 30.7161 114.156 30.4336C113.892 30.1784 113.673 29.9095 113.5 29.627V31.5H111.34ZM113.691 27.4121C113.837 27.6764 114.029 27.9362 114.266 28.1914C114.512 28.474 114.79 28.7155 115.1 28.916C115.391 29.1165 115.756 29.2897 116.193 29.4355C116.613 29.5814 117.068 29.6543 117.561 29.6543C118.199 29.6543 118.777 29.5312 119.297 29.2852C119.826 29.0299 120.268 28.7018 120.623 28.3008C120.979 27.8906 121.261 27.3984 121.471 26.8242C121.68 26.25 121.785 25.653 121.785 25.0332C121.785 24.4134 121.68 23.8164 121.471 23.2422C121.261 22.6771 120.974 22.1849 120.609 21.7656C120.263 21.3646 119.816 21.0365 119.27 20.7812C118.75 20.5352 118.171 20.4121 117.533 20.4121C116.604 20.4121 115.829 20.6354 115.209 21.082C114.553 21.556 114.047 22.0801 113.691 22.6543V27.4121ZM125.941 24.9785C125.941 24.0215 126.092 23.151 126.393 22.3672C126.702 21.556 127.14 20.8405 127.705 20.2207C128.279 19.5918 128.954 19.1042 129.729 18.7578C130.521 18.4023 131.406 18.2246 132.381 18.2246C133.283 18.2246 134.126 18.3887 134.91 18.7168C135.685 19.0449 136.35 19.5052 136.906 20.0977C137.48 20.7174 137.923 21.4421 138.232 22.2715C138.542 23.11 138.697 24.0579 138.697 25.1152V25.4844C138.697 25.5391 138.688 25.6667 138.67 25.8672H128.225C128.27 26.3776 128.411 26.8516 128.648 27.2891C128.904 27.7539 129.223 28.1595 129.605 28.5059C129.997 28.8522 130.453 29.1302 130.973 29.3398C131.501 29.5495 132.071 29.6543 132.682 29.6543C133.593 29.6543 134.372 29.4583 135.02 29.0664C135.703 28.6562 136.223 28.2188 136.578 27.7539L138.055 29.2852C137.772 29.6133 137.453 29.9277 137.098 30.2285C136.77 30.502 136.359 30.7754 135.867 31.0488C135.421 31.2949 134.919 31.4863 134.363 31.623C133.78 31.7689 133.192 31.8418 132.6 31.8418C131.652 31.8418 130.763 31.6686 129.934 31.3223C129.132 30.9941 128.43 30.5111 127.828 29.873C127.245 29.2624 126.78 28.5332 126.434 27.6855C126.105 26.8835 125.941 25.9811 125.941 24.9785ZM128.293 23.9121H136.4C136.391 23.5566 136.296 23.1738 136.113 22.7637C135.931 22.3444 135.68 21.9616 135.361 21.6152C135.033 21.2598 134.623 20.9727 134.131 20.7539C133.62 20.526 133.037 20.4121 132.381 20.4121C131.688 20.4121 131.096 20.5352 130.604 20.7812C130.084 21.0365 129.669 21.3281 129.359 21.6562C129.04 21.9844 128.79 22.3626 128.607 22.791C128.443 23.1738 128.339 23.5475 128.293 23.9121ZM141.855 15.5449C141.536 15.2259 141.377 14.8522 141.377 14.4238C141.377 13.9954 141.536 13.6217 141.855 13.3027C142.174 12.9837 142.548 12.8242 142.977 12.8242C143.405 12.8242 143.779 12.9837 144.098 13.3027C144.417 13.6217 144.576 13.9954 144.576 14.4238C144.576 14.8522 144.417 15.2259 144.098 15.5449C143.788 15.8548 143.414 16.0098 142.977 16.0098C142.539 16.0098 142.165 15.8548 141.855 15.5449ZM141.801 31.5V18.5664H144.152V31.5H141.801ZM148.158 31.5V18.5664H150.346V20.3848C150.683 19.8379 151.18 19.3411 151.836 18.8945C152.483 18.4479 153.322 18.2246 154.352 18.2246C154.99 18.2246 155.6 18.334 156.184 18.5527C156.776 18.7715 157.291 19.0859 157.729 19.4961C158.175 19.9154 158.531 20.4349 158.795 21.0547C159.059 21.6836 159.191 22.3945 159.191 23.1875V31.5H156.84V23.5703C156.84 23.0234 156.758 22.5495 156.594 22.1484C156.439 21.7656 156.215 21.4375 155.924 21.1641C155.641 20.8997 155.327 20.7083 154.98 20.5898C154.625 20.4714 154.247 20.4121 153.846 20.4121C153.39 20.4121 153.003 20.4759 152.684 20.6035C152.31 20.7493 152 20.9225 151.754 21.123C151.48 21.3418 151.243 21.5788 151.043 21.834C150.852 22.0801 150.674 22.3353 150.51 22.5996V31.5H148.158ZM161.898 25.0332C161.898 24.0579 162.058 23.1647 162.377 22.3535C162.705 21.5241 163.156 20.8086 163.73 20.207C164.332 19.5781 164.997 19.0951 165.727 18.7578C166.492 18.4023 167.312 18.2246 168.188 18.2246C168.734 18.2246 169.231 18.293 169.678 18.4297C170.161 18.5755 170.566 18.7396 170.895 18.9219C171.25 19.1224 171.574 19.3594 171.865 19.6328C172.157 19.9062 172.38 20.1751 172.535 20.4395V18.5664H174.682V31.5547C174.682 32.7122 174.504 33.6921 174.148 34.4941C173.775 35.3327 173.287 36.0345 172.686 36.5996C172.084 37.1556 171.373 37.5749 170.553 37.8574C169.723 38.14 168.871 38.2812 167.996 38.2812C166.674 38.2812 165.531 38.026 164.564 37.5156C163.617 37.0143 162.837 36.4447 162.227 35.8066L163.662 34.043C164.109 34.5716 164.674 35.041 165.357 35.4512C166.077 35.8796 166.966 36.0938 168.023 36.0938C169.318 36.0938 170.357 35.7201 171.141 34.9727C171.934 34.2161 172.33 33.1133 172.33 31.6641V29.873C172.212 30.0371 172.048 30.224 171.838 30.4336C171.628 30.6432 171.341 30.8574 170.977 31.0762C170.639 31.2767 170.234 31.4544 169.76 31.6094C169.277 31.7643 168.743 31.8418 168.16 31.8418C167.285 31.8418 166.465 31.6641 165.699 31.3086C164.961 30.9622 164.3 30.4792 163.717 29.8594C163.152 29.2487 162.705 28.5286 162.377 27.6992C162.058 26.888 161.898 25.9993 161.898 25.0332ZM164.551 23.2422C164.35 23.7891 164.25 24.3861 164.25 25.0332C164.25 25.6803 164.35 26.2773 164.551 26.8242C164.751 27.3893 165.038 27.8815 165.412 28.3008C165.768 28.7018 166.21 29.0299 166.738 29.2852C167.258 29.5312 167.846 29.6543 168.502 29.6543C168.967 29.6543 169.409 29.5814 169.828 29.4355C170.247 29.2897 170.612 29.1211 170.922 28.9297C171.223 28.7383 171.501 28.5013 171.756 28.2188C171.993 27.9453 172.184 27.6947 172.33 27.4668V22.5996C171.965 22.0436 171.473 21.5423 170.854 21.0957C170.215 20.64 169.432 20.4121 168.502 20.4121C167.846 20.4121 167.258 20.5352 166.738 20.7812C166.21 21.0365 165.768 21.3646 165.412 21.7656C165.038 22.1849 164.751 22.6771 164.551 23.2422Z" fill="#3A3A3C"/>
</svg>
