<svg width="158" height="44" viewBox="0 0 158 44" fill="none" xmlns="http://www.w3.org/2000/svg">
<path d="M2 35.1033L12.0614 27.3268C12.0614 27.3268 16.5642 24.19 20.7704 27.9444L29.9875 30.1335C30.516 30.2588 30.975 30.5851 31.2669 31.0432C31.5589 31.5013 31.6609 32.0551 31.5513 32.5872V32.5872C31.4399 33.129 31.1183 33.6045 30.6569 33.9096C30.1956 34.2147 29.6321 34.3245 29.0899 34.2149L19.7937 32.3377L29.1143 34.2271C29.3771 34.2813 29.6485 34.2796 29.9106 34.2219C30.1727 34.1643 30.4197 34.052 30.6355 33.8924L38.917 27.7892C39.2901 27.5071 39.7526 27.3694 40.2192 27.4016C40.6859 27.4337 41.1251 27.6336 41.456 27.9642V27.9642C41.6493 28.1576 41.7995 28.3898 41.8967 28.6454C41.9938 28.901 42.0359 29.1742 42.0199 29.4472C42.004 29.7202 41.9304 29.9868 41.8041 30.2293C41.6778 30.4719 41.5016 30.6849 41.2871 30.8545L30.9687 39.0022C30.2527 39.5681 29.3667 39.8757 28.4541 39.8754H11.7206L7.98753 43" stroke="#1A2578" stroke-width="1.5" stroke-linecap="round" stroke-linejoin="round"/>
<path d="M29.3195 5.92322C30.6247 5.92322 35.8805 7.03675 35.8805 12.5466C35.8805 12.5466 35.6249 16.2736 33.2366 17.9622C33.2366 17.9622 32.0592 18.63 32.0592 22.1653V25.3188H26.1706V22.0345C26.1706 22.0345 26.5935 19.4043 24.7056 17.7979C23.2087 16.5246 22.2823 14.7737 22.4131 12.0963C22.5364 9.48592 24.9247 5.92322 29.3195 5.92322Z" stroke="#BF0830" stroke-width="1.5" stroke-linecap="round" stroke-linejoin="round"/>
<path d="M26.1665 23.0523H32.0597" stroke="#BF0830" stroke-width="1.5" stroke-linecap="round" stroke-linejoin="round"/>
<path d="M32.1769 20.3992H26.1665" stroke="#BF0830" stroke-width="1.5" stroke-linecap="round" stroke-linejoin="round"/>
<path d="M29.7015 9.32623L27.8867 12.7018H30.4986L28.6184 15.8873" stroke="#BF0830" stroke-width="1.5" stroke-linecap="round" stroke-linejoin="round"/>
<path d="M35.1475 6.58654L36.6763 5.08966" stroke="#BF0830" stroke-width="1.5" stroke-linecap="round" stroke-linejoin="round"/>
<path d="M37.6636 12.7338H39.8617" stroke="#BF0830" stroke-width="1.5" stroke-linecap="round" stroke-linejoin="round"/>
<path d="M35.1475 18.8171L36.6763 20.2181" stroke="#BF0830" stroke-width="1.5" stroke-linecap="round" stroke-linejoin="round"/>
<path d="M23.0766 18.8171L21.4854 20.2181" stroke="#BF0830" stroke-width="1.5" stroke-linecap="round" stroke-linejoin="round"/>
<path d="M20.5604 12.7338H18.3638" stroke="#BF0830" stroke-width="1.5" stroke-linecap="round" stroke-linejoin="round"/>
<path d="M23.0766 6.71433L21.4854 5.08966" stroke="#BF0830" stroke-width="1.5" stroke-linecap="round" stroke-linejoin="round"/>
<path d="M29.1123 4.13427L29.1716 2" stroke="#BF0830" stroke-width="1.5" stroke-linecap="round" stroke-linejoin="round"/>
<path d="M56.2969 31.5V11.8945H58.6484V29.2578H67.4395V31.5H56.2969ZM68.5742 24.9785C68.5742 24.0215 68.7246 23.151 69.0254 22.3672C69.3353 21.556 69.7728 20.8405 70.3379 20.2207C70.9121 19.5918 71.5866 19.1042 72.3613 18.7578C73.1543 18.4023 74.0384 18.2246 75.0137 18.2246C75.916 18.2246 76.7591 18.3887 77.543 18.7168C78.3177 19.0449 78.9831 19.5052 79.5391 20.0977C80.1133 20.7174 80.5553 21.4421 80.8652 22.2715C81.1751 23.11 81.3301 24.0579 81.3301 25.1152V25.4844C81.3301 25.5391 81.321 25.6667 81.3027 25.8672H70.8574C70.903 26.3776 71.0443 26.8516 71.2812 27.2891C71.5365 27.7539 71.8555 28.1595 72.2383 28.5059C72.6302 28.8522 73.0859 29.1302 73.6055 29.3398C74.1341 29.5495 74.7038 29.6543 75.3145 29.6543C76.2259 29.6543 77.0052 29.4583 77.6523 29.0664C78.3359 28.6562 78.8555 28.2188 79.2109 27.7539L80.6875 29.2852C80.4049 29.6133 80.0859 29.9277 79.7305 30.2285C79.4023 30.502 78.9922 30.7754 78.5 31.0488C78.0534 31.2949 77.5521 31.4863 76.9961 31.623C76.4128 31.7689 75.8249 31.8418 75.2324 31.8418C74.2845 31.8418 73.3958 31.6686 72.5664 31.3223C71.7643 30.9941 71.0625 30.5111 70.4609 29.873C69.8776 29.2624 69.4128 28.5332 69.0664 27.6855C68.7383 26.8835 68.5742 25.9811 68.5742 24.9785ZM70.9258 23.9121H79.0332C79.0241 23.5566 78.9284 23.1738 78.7461 22.7637C78.5638 22.3444 78.3132 21.9616 77.9941 21.6152C77.666 21.2598 77.2559 20.9727 76.7637 20.7539C76.2533 20.526 75.6699 20.4121 75.0137 20.4121C74.321 20.4121 73.7285 20.5352 73.2363 20.7812C72.7168 21.0365 72.3021 21.3281 71.9922 21.6562C71.6732 21.9844 71.4225 22.3626 71.2402 22.791C71.0762 23.1738 70.9714 23.5475 70.9258 23.9121ZM83.3945 27.4668C83.3945 26.8288 83.5267 26.2363 83.791 25.6895C84.0371 25.179 84.3971 24.7233 84.8711 24.3223C85.3177 23.9395 85.86 23.6387 86.498 23.4199C87.0996 23.2103 87.7832 23.1055 88.5488 23.1055C89.3783 23.1055 90.1257 23.2148 90.791 23.4336C91.4382 23.6432 91.9759 23.8848 92.4043 24.1582V23.4609C92.4043 22.7682 92.2858 22.2305 92.0488 21.8477C91.8118 21.4648 91.5156 21.1595 91.1602 20.9316C90.832 20.722 90.4674 20.5807 90.0664 20.5078C89.7109 20.444 89.3919 20.4121 89.1094 20.4121C88.5352 20.4121 87.8971 20.5169 87.1953 20.7266C86.5117 20.9271 85.8691 21.1868 85.2676 21.5059L84.2969 19.5508C84.9076 19.2044 85.5957 18.9036 86.3613 18.6484C87.2272 18.3659 88.1523 18.2246 89.1367 18.2246C90.0846 18.2246 90.9141 18.3613 91.625 18.6348C92.3542 18.9173 92.9375 19.2773 93.375 19.7148C93.849 20.1888 94.1953 20.6947 94.4141 21.2324C94.651 21.8158 94.7695 22.3991 94.7695 22.9824V31.5H92.6094V29.627C92.1172 30.3105 91.4883 30.8483 90.7227 31.2402C89.9388 31.6413 89.1094 31.8418 88.2344 31.8418C87.6693 31.8418 87.0859 31.7415 86.4844 31.541C85.9375 31.3587 85.4225 31.0762 84.9395 30.6934C84.4655 30.3197 84.0918 29.8594 83.8184 29.3125C83.5358 28.7474 83.3945 28.1322 83.3945 27.4668ZM85.7461 27.4668C85.7461 27.8587 85.8281 28.2005 85.9922 28.4922C86.138 28.7474 86.3659 28.9844 86.6758 29.2031C86.931 29.3854 87.2409 29.5267 87.6055 29.627C87.9336 29.7181 88.2936 29.7637 88.6855 29.7637C89.5514 29.7637 90.3034 29.5495 90.9414 29.1211C91.5521 28.7109 92.0397 28.2734 92.4043 27.8086V25.9902C92.0124 25.7168 91.5293 25.4935 90.9551 25.3203C90.3717 25.1471 89.7383 25.0605 89.0547 25.0605C87.9974 25.0605 87.1862 25.2839 86.6211 25.7305C86.0378 26.1862 85.7461 26.765 85.7461 27.4668ZM98.3379 31.5V18.5664H100.525V20.5488C100.68 20.2663 100.881 19.9792 101.127 19.6875C101.391 19.3776 101.656 19.127 101.92 18.9355C102.166 18.7533 102.503 18.5846 102.932 18.4297C103.305 18.293 103.715 18.2246 104.162 18.2246C104.445 18.2246 104.75 18.252 105.078 18.3066C105.342 18.3522 105.652 18.4388 106.008 18.5664L105.146 20.6855C104.937 20.5853 104.7 20.5169 104.436 20.4805C104.135 20.4349 103.893 20.4121 103.711 20.4121C103.292 20.4121 102.927 20.4805 102.617 20.6172C102.307 20.7539 102.025 20.9271 101.77 21.1367C101.514 21.3464 101.3 21.5788 101.127 21.834C100.945 22.1074 100.799 22.3626 100.689 22.5996V31.5H98.3379ZM107.854 31.5V18.5664H110.041V20.3848C110.378 19.8379 110.875 19.3411 111.531 18.8945C112.178 18.4479 113.017 18.2246 114.047 18.2246C114.685 18.2246 115.296 18.334 115.879 18.5527C116.471 18.7715 116.986 19.0859 117.424 19.4961C117.87 19.9154 118.226 20.4349 118.49 21.0547C118.755 21.6836 118.887 22.3945 118.887 23.1875V31.5H116.535V23.5703C116.535 23.0234 116.453 22.5495 116.289 22.1484C116.134 21.7656 115.911 21.4375 115.619 21.1641C115.337 20.8997 115.022 20.7083 114.676 20.5898C114.32 20.4714 113.942 20.4121 113.541 20.4121C113.085 20.4121 112.698 20.4759 112.379 20.6035C112.005 20.7493 111.695 20.9225 111.449 21.123C111.176 21.3418 110.939 21.5788 110.738 21.834C110.547 22.0801 110.369 22.3353 110.205 22.5996V31.5H107.854ZM122.961 15.5449C122.642 15.2259 122.482 14.8522 122.482 14.4238C122.482 13.9954 122.642 13.6217 122.961 13.3027C123.28 12.9837 123.654 12.8242 124.082 12.8242C124.51 12.8242 124.884 12.9837 125.203 13.3027C125.522 13.6217 125.682 13.9954 125.682 14.4238C125.682 14.8522 125.522 15.2259 125.203 15.5449C124.893 15.8548 124.52 16.0098 124.082 16.0098C123.645 16.0098 123.271 15.8548 122.961 15.5449ZM122.906 31.5V18.5664H125.258V31.5H122.906ZM129.264 31.5V18.5664H131.451V20.3848C131.788 19.8379 132.285 19.3411 132.941 18.8945C133.589 18.4479 134.427 18.2246 135.457 18.2246C136.095 18.2246 136.706 18.334 137.289 18.5527C137.882 18.7715 138.396 19.0859 138.834 19.4961C139.281 19.9154 139.636 20.4349 139.9 21.0547C140.165 21.6836 140.297 22.3945 140.297 23.1875V31.5H137.945V23.5703C137.945 23.0234 137.863 22.5495 137.699 22.1484C137.544 21.7656 137.321 21.4375 137.029 21.1641C136.747 20.8997 136.432 20.7083 136.086 20.5898C135.73 20.4714 135.352 20.4121 134.951 20.4121C134.495 20.4121 134.108 20.4759 133.789 20.6035C133.415 20.7493 133.105 20.9225 132.859 21.123C132.586 21.3418 132.349 21.5788 132.148 21.834C131.957 22.0801 131.779 22.3353 131.615 22.5996V31.5H129.264ZM143.004 25.0332C143.004 24.0579 143.163 23.1647 143.482 22.3535C143.811 21.5241 144.262 20.8086 144.836 20.207C145.438 19.5781 146.103 19.0951 146.832 18.7578C147.598 18.4023 148.418 18.2246 149.293 18.2246C149.84 18.2246 150.337 18.293 150.783 18.4297C151.266 18.5755 151.672 18.7396 152 18.9219C152.355 19.1224 152.679 19.3594 152.971 19.6328C153.262 19.9062 153.486 20.1751 153.641 20.4395V18.5664H155.787V31.5547C155.787 32.7122 155.609 33.6921 155.254 34.4941C154.88 35.3327 154.393 36.0345 153.791 36.5996C153.189 37.1556 152.479 37.5749 151.658 37.8574C150.829 38.14 149.977 38.2812 149.102 38.2812C147.78 38.2812 146.636 38.026 145.67 37.5156C144.722 37.0143 143.943 36.4447 143.332 35.8066L144.768 34.043C145.214 34.5716 145.779 35.041 146.463 35.4512C147.183 35.8796 148.072 36.0938 149.129 36.0938C150.423 36.0938 151.462 35.7201 152.246 34.9727C153.039 34.2161 153.436 33.1133 153.436 31.6641V29.873C153.317 30.0371 153.153 30.224 152.943 30.4336C152.734 30.6432 152.447 30.8574 152.082 31.0762C151.745 31.2767 151.339 31.4544 150.865 31.6094C150.382 31.7643 149.849 31.8418 149.266 31.8418C148.391 31.8418 147.57 31.6641 146.805 31.3086C146.066 30.9622 145.406 30.4792 144.822 29.8594C144.257 29.2487 143.811 28.5286 143.482 27.6992C143.163 26.888 143.004 25.9993 143.004 25.0332ZM145.656 23.2422C145.456 23.7891 145.355 24.3861 145.355 25.0332C145.355 25.6803 145.456 26.2773 145.656 26.8242C145.857 27.3893 146.144 27.8815 146.518 28.3008C146.873 28.7018 147.315 29.0299 147.844 29.2852C148.363 29.5312 148.951 29.6543 149.607 29.6543C150.072 29.6543 150.514 29.5814 150.934 29.4355C151.353 29.2897 151.717 29.1211 152.027 28.9297C152.328 28.7383 152.606 28.5013 152.861 28.2188C153.098 27.9453 153.29 27.6947 153.436 27.4668V22.5996C153.071 22.0436 152.579 21.5423 151.959 21.0957C151.321 20.64 150.537 20.4121 149.607 20.4121C148.951 20.4121 148.363 20.5352 147.844 20.7812C147.315 21.0365 146.873 21.3646 146.518 21.7656C146.144 22.1849 145.857 22.6771 145.656 23.2422Z" fill="#3A3A3C"/>
</svg>
